<svg width="610" height="443" viewBox="0 0 610 443" fill="none" xmlns="http://www.w3.org/2000/svg">
<g clip-path="url(#clip0_33_137)">
<path d="M355.324 78.0958C366.757 78.0958 376.024 68.8416 376.024 57.426C376.024 46.0104 366.757 36.7562 355.324 36.7562C343.892 36.7562 334.624 46.0104 334.624 57.426C334.624 68.8416 343.892 78.0958 355.324 78.0958Z" fill="#244365"/>
<path d="M515.903 384.859C546.672 361.458 561.368 322.135 552.168 284.623C551.939 283.691 551.698 282.761 551.444 281.833C545.344 259.567 530.254 238.404 508.261 231.289C489.794 225.315 469.637 229.909 450.372 227.534C412.553 222.87 383.233 192.316 362.602 160.325C341.972 128.333 326.117 92.5239 298.703 66.0946C253.517 22.5304 179.806 13.1509 123.781 41.508C67.7563 69.8652 32.069 132.778 33.591 195.478C35.113 258.179 72.3905 318.124 126.527 349.93C146.414 361.613 169.416 369.891 192.307 366.994C212.17 364.481 230.217 353.824 249.986 350.661C281.068 345.686 311.952 359.718 338.835 376.07C365.718 392.422 391.685 411.804 422.234 419.384C451.897 426.745 488.647 405.588 515.903 384.859Z" fill="#244365"/>
<path d="M471.696 42.8246C471.022 42.3756 470.339 41.9499 469.665 41.5164C450.167 29.0651 429.269 18.9499 407.403 11.3796L402.332 81.2213H370.19V1.18435C368.166 0.766323 366.127 0.37152 364.088 -6.10352e-05V81.2213H325.89C304.862 81.2213 284.695 72.8802 269.826 58.033C254.957 43.1858 246.603 23.0486 246.603 2.05146V2.05139C244.557 2.49265 242.525 2.96486 240.494 3.46805V81.2213H209.382L204.553 14.6232C182.081 23.2286 160.747 34.5452 141.027 48.321C140.686 48.5532 140.344 48.7932 140.011 49.0254C138.298 50.2253 136.608 51.4484 134.925 52.687V319.134H226.617L224.996 296.723L216.081 173.675H395.626L386.711 296.723L385.09 319.134H475.766V45.5186C474.417 44.6052 473.06 43.7072 471.696 42.8246ZM240.494 153.354H214.608L209.824 87.3214H240.494V153.354ZM364.088 153.354H320.611V152.046C320.611 151.417 320.487 150.795 320.245 150.214C320.004 149.633 319.651 149.105 319.205 148.661C318.759 148.216 318.23 147.864 317.648 147.624C317.066 147.384 316.442 147.261 315.812 147.262H296.911C296.282 147.262 295.658 147.385 295.077 147.626C294.496 147.866 293.967 148.218 293.522 148.663C293.077 149.107 292.725 149.635 292.484 150.215C292.243 150.796 292.119 151.418 292.12 152.046V153.354H246.603V87.3214H364.088V153.354ZM370.19 153.354V87.3214H401.891L397.107 153.354H370.19Z" fill="#3F3D56"/>
<path d="M-3.05176e-05 336.196C6.73496 344.165 14.0196 351.653 21.8006 358.607L588.199 359.381C595.98 352.427 603.265 344.939 610 336.97L-3.05176e-05 336.196Z" fill="#3F3D56"/>
<path d="M384.093 264.435V330.781C384.094 331.626 384.431 332.437 385.029 333.035C385.628 333.633 386.44 333.969 387.287 333.969H485.75C486.597 333.969 487.408 333.633 488.007 333.035C488.606 332.437 488.943 331.626 488.943 330.781V264.435C488.941 263.59 488.604 262.781 488.005 262.184C487.407 261.587 486.596 261.251 485.75 261.25H387.287C386.441 261.251 385.63 261.587 385.031 262.184C384.432 262.781 384.095 263.59 384.093 264.435V264.435Z" fill="#3F3D56"/>
<path d="M386.403 265.26V329.962C386.404 330.414 386.584 330.847 386.904 331.166C387.224 331.486 387.657 331.666 388.11 331.666H484.93C485.383 331.666 485.816 331.486 486.136 331.166C486.456 330.847 486.636 330.414 486.637 329.962V265.26C486.637 264.808 486.457 264.374 486.137 264.054C485.817 263.734 485.383 263.554 484.93 263.553H388.11C387.657 263.554 387.223 263.734 386.903 264.054C386.583 264.374 386.403 264.808 386.403 265.26V265.26Z" fill="#2C65A5"/>
<path d="M382.034 343.72C382.214 343.946 382.444 344.128 382.705 344.252C382.966 344.377 383.251 344.441 383.541 344.44H488.972C489.26 344.439 489.545 344.375 489.805 344.251C490.065 344.127 490.294 343.946 490.476 343.723C490.658 343.499 490.787 343.238 490.855 342.958C490.923 342.678 490.927 342.387 490.868 342.105L489.231 334.343C489.164 334.026 489.017 333.732 488.806 333.486C488.595 333.24 488.326 333.051 488.023 332.936C487.804 332.85 487.571 332.806 487.335 332.806H385.171C384.935 332.806 384.702 332.85 384.482 332.936C384.179 333.051 383.91 333.24 383.699 333.486C383.488 333.732 383.342 334.026 383.274 334.343L381.638 342.105C381.58 342.387 381.585 342.678 381.654 342.957C381.722 343.237 381.852 343.497 382.034 343.72V343.72Z" fill="#2F2E41"/>
<path d="M483.717 336.149H486.208C486.417 336.149 486.586 335.98 486.586 335.771V334.582C486.586 334.373 486.417 334.204 486.208 334.204H483.717C483.508 334.204 483.339 334.373 483.339 334.582V335.771C483.339 335.98 483.508 336.149 483.717 336.149Z" fill="#3F3D56"/>
<path d="M477.223 336.149H479.713C479.922 336.149 480.092 335.98 480.092 335.771V334.582C480.092 334.373 479.922 334.204 479.713 334.204H477.223C477.014 334.204 476.844 334.373 476.844 334.582V335.771C476.844 335.98 477.014 336.149 477.223 336.149Z" fill="#3F3D56"/>
<path d="M470.728 336.149H473.219C473.428 336.149 473.597 335.98 473.597 335.771V334.582C473.597 334.373 473.428 334.204 473.219 334.204H470.728C470.519 334.204 470.35 334.373 470.35 334.582V335.771C470.35 335.98 470.519 336.149 470.728 336.149Z" fill="#3F3D56"/>
<path d="M464.234 336.149H466.724C466.933 336.149 467.103 335.98 467.103 335.771V334.582C467.103 334.373 466.933 334.204 466.724 334.204H464.234C464.025 334.204 463.856 334.373 463.856 334.582V335.771C463.856 335.98 464.025 336.149 464.234 336.149Z" fill="#3F3D56"/>
<path d="M457.74 336.149H460.23C460.439 336.149 460.608 335.98 460.608 335.771V334.582C460.608 334.373 460.439 334.204 460.23 334.204H457.74C457.531 334.204 457.361 334.373 457.361 334.582V335.771C457.361 335.98 457.531 336.149 457.74 336.149Z" fill="#3F3D56"/>
<path d="M451.245 336.149H453.735C453.944 336.149 454.114 335.98 454.114 335.771V334.582C454.114 334.373 453.944 334.204 453.735 334.204H451.245C451.036 334.204 450.867 334.373 450.867 334.582V335.771C450.867 335.98 451.036 336.149 451.245 336.149Z" fill="#3F3D56"/>
<path d="M444.751 336.149H447.241C447.45 336.149 447.619 335.98 447.619 335.771V334.582C447.619 334.373 447.45 334.204 447.241 334.204H444.751C444.542 334.204 444.372 334.373 444.372 334.582V335.771C444.372 335.98 444.542 336.149 444.751 336.149Z" fill="#3F3D56"/>
<path d="M438.256 336.149H440.747C440.956 336.149 441.125 335.98 441.125 335.771V334.582C441.125 334.373 440.956 334.204 440.747 334.204H438.256C438.047 334.204 437.878 334.373 437.878 334.582V335.771C437.878 335.98 438.047 336.149 438.256 336.149Z" fill="#3F3D56"/>
<path d="M431.762 336.149H434.252C434.461 336.149 434.631 335.98 434.631 335.771V334.582C434.631 334.373 434.461 334.204 434.252 334.204H431.762C431.553 334.204 431.383 334.373 431.383 334.582V335.771C431.383 335.98 431.553 336.149 431.762 336.149Z" fill="#3F3D56"/>
<path d="M425.267 336.149H427.758C427.967 336.149 428.136 335.98 428.136 335.771V334.582C428.136 334.373 427.967 334.204 427.758 334.204H425.267C425.058 334.204 424.889 334.373 424.889 334.582V335.771C424.889 335.98 425.058 336.149 425.267 336.149Z" fill="#3F3D56"/>
<path d="M418.773 336.149H421.263C421.472 336.149 421.642 335.98 421.642 335.771V334.582C421.642 334.373 421.472 334.204 421.263 334.204H418.773C418.564 334.204 418.394 334.373 418.394 334.582V335.771C418.394 335.98 418.564 336.149 418.773 336.149Z" fill="#3F3D56"/>
<path d="M412.278 336.149H414.769C414.978 336.149 415.147 335.98 415.147 335.771V334.582C415.147 334.373 414.978 334.204 414.769 334.204H412.278C412.069 334.204 411.9 334.373 411.9 334.582V335.771C411.9 335.98 412.069 336.149 412.278 336.149Z" fill="#3F3D56"/>
<path d="M405.784 336.149H408.274C408.483 336.149 408.653 335.98 408.653 335.771V334.582C408.653 334.373 408.483 334.204 408.274 334.204H405.784C405.575 334.204 405.406 334.373 405.406 334.582V335.771C405.406 335.98 405.575 336.149 405.784 336.149Z" fill="#3F3D56"/>
<path d="M399.29 336.149H401.78C401.989 336.149 402.158 335.98 402.158 335.771V334.582C402.158 334.373 401.989 334.204 401.78 334.204H399.29C399.081 334.204 398.911 334.373 398.911 334.582V335.771C398.911 335.98 399.081 336.149 399.29 336.149Z" fill="#3F3D56"/>
<path d="M392.795 336.149H395.285C395.494 336.149 395.664 335.98 395.664 335.771V334.582C395.664 334.373 395.494 334.204 395.285 334.204H392.795C392.586 334.204 392.417 334.373 392.417 334.582V335.771C392.417 335.98 392.586 336.149 392.795 336.149Z" fill="#3F3D56"/>
<path d="M386.301 336.149H388.791C389 336.149 389.169 335.98 389.169 335.771V334.582C389.169 334.373 389 334.204 388.791 334.204H386.301C386.092 334.204 385.922 334.373 385.922 334.582V335.771C385.922 335.98 386.092 336.149 386.301 336.149Z" fill="#3F3D56"/>
<path d="M483.794 339.392H486.284C486.493 339.392 486.663 339.223 486.663 339.014V337.824C486.663 337.616 486.493 337.446 486.284 337.446H483.794C483.585 337.446 483.416 337.616 483.416 337.824V339.014C483.416 339.223 483.585 339.392 483.794 339.392Z" fill="#3F3D56"/>
<path d="M477.3 339.392H479.79C479.999 339.392 480.168 339.223 480.168 339.014V337.824C480.168 337.616 479.999 337.446 479.79 337.446H477.3C477.091 337.446 476.921 337.616 476.921 337.824V339.014C476.921 339.223 477.091 339.392 477.3 339.392Z" fill="#3F3D56"/>
<path d="M470.805 339.392H473.295C473.505 339.392 473.674 339.223 473.674 339.014V337.824C473.674 337.616 473.505 337.446 473.295 337.446H470.805C470.596 337.446 470.427 337.616 470.427 337.824V339.014C470.427 339.223 470.596 339.392 470.805 339.392Z" fill="#3F3D56"/>
<path d="M464.311 339.392H466.801C467.01 339.392 467.18 339.223 467.18 339.014V337.824C467.18 337.616 467.01 337.446 466.801 337.446H464.311C464.102 337.446 463.932 337.616 463.932 337.824V339.014C463.932 339.223 464.102 339.392 464.311 339.392Z" fill="#3F3D56"/>
<path d="M457.816 339.392H460.307C460.516 339.392 460.685 339.223 460.685 339.014V337.824C460.685 337.616 460.516 337.446 460.307 337.446H457.816C457.607 337.446 457.438 337.616 457.438 337.824V339.014C457.438 339.223 457.607 339.392 457.816 339.392Z" fill="#3F3D56"/>
<path d="M451.322 339.392H453.812C454.021 339.392 454.191 339.223 454.191 339.014V337.824C454.191 337.616 454.021 337.446 453.812 337.446H451.322C451.113 337.446 450.943 337.616 450.943 337.824V339.014C450.943 339.223 451.113 339.392 451.322 339.392Z" fill="#3F3D56"/>
<path d="M444.827 339.392H447.318C447.527 339.392 447.696 339.223 447.696 339.014V337.824C447.696 337.616 447.527 337.446 447.318 337.446H444.827C444.618 337.446 444.449 337.616 444.449 337.824V339.014C444.449 339.223 444.618 339.392 444.827 339.392Z" fill="#3F3D56"/>
<path d="M438.333 339.392H440.823C441.032 339.392 441.202 339.223 441.202 339.014V337.824C441.202 337.616 441.032 337.446 440.823 337.446H438.333C438.124 337.446 437.955 337.616 437.955 337.824V339.014C437.955 339.223 438.124 339.392 438.333 339.392Z" fill="#3F3D56"/>
<path d="M431.839 339.392H434.329C434.538 339.392 434.707 339.223 434.707 339.014V337.824C434.707 337.616 434.538 337.446 434.329 337.446H431.839C431.63 337.446 431.46 337.616 431.46 337.824V339.014C431.46 339.223 431.63 339.392 431.839 339.392Z" fill="#3F3D56"/>
<path d="M425.344 339.392H427.834C428.043 339.392 428.213 339.223 428.213 339.014V337.824C428.213 337.616 428.043 337.446 427.834 337.446H425.344C425.135 337.446 424.966 337.616 424.966 337.824V339.014C424.966 339.223 425.135 339.392 425.344 339.392Z" fill="#3F3D56"/>
<path d="M418.85 339.392H421.34C421.549 339.392 421.718 339.223 421.718 339.014V337.824C421.718 337.616 421.549 337.446 421.34 337.446H418.85C418.641 337.446 418.471 337.616 418.471 337.824V339.014C418.471 339.223 418.641 339.392 418.85 339.392Z" fill="#3F3D56"/>
<path d="M412.355 339.392H414.846C415.055 339.392 415.224 339.223 415.224 339.014V337.824C415.224 337.616 415.055 337.446 414.846 337.446H412.355C412.146 337.446 411.977 337.616 411.977 337.824V339.014C411.977 339.223 412.146 339.392 412.355 339.392Z" fill="#3F3D56"/>
<path d="M405.861 339.392H408.351C408.56 339.392 408.73 339.223 408.73 339.014V337.824C408.73 337.616 408.56 337.446 408.351 337.446H405.861C405.652 337.446 405.482 337.616 405.482 337.824V339.014C405.482 339.223 405.652 339.392 405.861 339.392Z" fill="#3F3D56"/>
<path d="M399.366 339.392H401.857C402.066 339.392 402.235 339.223 402.235 339.014V337.824C402.235 337.616 402.066 337.446 401.857 337.446H399.366C399.157 337.446 398.988 337.616 398.988 337.824V339.014C398.988 339.223 399.157 339.392 399.366 339.392Z" fill="#3F3D56"/>
<path d="M392.872 339.392H395.362C395.571 339.392 395.741 339.223 395.741 339.014V337.824C395.741 337.616 395.571 337.446 395.362 337.446H392.872C392.663 337.446 392.493 337.616 392.493 337.824V339.014C392.493 339.223 392.663 339.392 392.872 339.392Z" fill="#3F3D56"/>
<path d="M386.377 339.392H388.868C389.077 339.392 389.246 339.223 389.246 339.014V337.824C389.246 337.616 389.077 337.446 388.868 337.446H386.377C386.168 337.446 385.999 337.616 385.999 337.824V339.014C385.999 339.223 386.168 339.392 386.377 339.392Z" fill="#3F3D56"/>
<path d="M429.89 343.283H455.111C455.32 343.283 455.49 343.113 455.49 342.905V341.715C455.49 341.506 455.32 341.337 455.111 341.337H429.89C429.681 341.337 429.512 341.506 429.512 341.715V342.905C429.512 343.113 429.681 343.283 429.89 343.283Z" fill="#3F3D56"/>
<path d="M403.17 277.708H400.965C400.297 277.708 399.755 278.249 399.755 278.916C399.755 279.584 400.297 280.125 400.965 280.125H403.17C403.838 280.125 404.38 279.584 404.38 278.916C404.38 278.249 403.838 277.708 403.17 277.708Z" fill="white"/>
<path d="M428.384 277.708H426.179C425.511 277.708 424.969 278.249 424.969 278.916C424.969 279.584 425.511 280.125 426.179 280.125H428.384C429.052 280.125 429.594 279.584 429.594 278.916C429.594 278.249 429.052 277.708 428.384 277.708Z" fill="white"/>
<path d="M435.528 277.708H433.323C432.655 277.708 432.113 278.249 432.113 278.916C432.113 279.584 432.655 280.125 433.323 280.125H435.528C436.196 280.125 436.738 279.584 436.738 278.916C436.738 278.249 436.196 277.708 435.528 277.708Z" fill="white"/>
<path d="M421.525 277.506H407.823C407.155 277.506 406.613 278.048 406.613 278.715C406.613 279.382 407.155 279.923 407.823 279.923H421.525C422.194 279.923 422.736 279.382 422.736 278.715C422.736 278.048 422.194 277.506 421.525 277.506Z" fill="white"/>
<path d="M455.144 277.506H441.442C440.774 277.506 440.232 278.048 440.232 278.715C440.232 279.382 440.774 279.923 441.442 279.923H455.144C455.813 279.923 456.355 279.382 456.355 278.715C456.355 278.048 455.813 277.506 455.144 277.506Z" fill="white"/>
<path d="M409.893 283.163H407.689C407.02 283.163 406.478 283.704 406.478 284.371C406.478 285.039 407.02 285.58 407.689 285.58H409.893C410.562 285.58 411.104 285.039 411.104 284.371C411.104 283.704 410.562 283.163 409.893 283.163Z" fill="white"/>
<path d="M435.108 283.163H432.903C432.235 283.163 431.693 283.704 431.693 284.371C431.693 285.039 432.235 285.58 432.903 285.58H435.108C435.776 285.58 436.318 285.039 436.318 284.371C436.318 283.704 435.776 283.163 435.108 283.163Z" fill="white"/>
<path d="M442.252 283.163H440.047C439.379 283.163 438.837 283.704 438.837 284.371C438.837 285.039 439.379 285.58 440.047 285.58H442.252C442.92 285.58 443.462 285.039 443.462 284.371C443.462 283.704 442.92 283.163 442.252 283.163Z" fill="white"/>
<path d="M428.249 282.961H414.547C413.879 282.961 413.337 283.503 413.337 284.17C413.337 284.837 413.879 285.378 414.547 285.378H428.249C428.918 285.378 429.459 284.837 429.459 284.17C429.459 283.503 428.918 282.961 428.249 282.961Z" fill="white"/>
<path d="M461.868 282.961H448.166C447.498 282.961 446.956 283.503 446.956 284.17C446.956 284.837 447.498 285.378 448.166 285.378H461.868C462.537 285.378 463.078 284.837 463.078 284.17C463.078 283.503 462.537 282.961 461.868 282.961Z" fill="white"/>
<path d="M416.617 288.618H414.412C413.744 288.618 413.202 289.159 413.202 289.826C413.202 290.494 413.744 291.035 414.412 291.035H416.617C417.286 291.035 417.827 290.494 417.827 289.826C417.827 289.159 417.286 288.618 416.617 288.618Z" fill="white"/>
<path d="M441.831 288.618H439.627C438.958 288.618 438.416 289.159 438.416 289.826C438.416 290.494 438.958 291.035 439.627 291.035H441.831C442.5 291.035 443.042 290.494 443.042 289.826C443.042 289.159 442.5 288.618 441.831 288.618Z" fill="white"/>
<path d="M448.975 288.618H446.771C446.102 288.618 445.56 289.159 445.56 289.826C445.56 290.494 446.102 291.035 446.771 291.035H448.975C449.644 291.035 450.186 290.494 450.186 289.826C450.186 289.159 449.644 288.618 448.975 288.618Z" fill="white"/>
<path d="M434.973 288.416H421.271C420.602 288.416 420.061 288.958 420.061 289.625C420.061 290.292 420.602 290.833 421.271 290.833H434.973C435.641 290.833 436.183 290.292 436.183 289.625C436.183 288.958 435.641 288.416 434.973 288.416Z" fill="white"/>
<path d="M468.592 288.416H454.89C454.221 288.416 453.68 288.958 453.68 289.625C453.68 290.292 454.221 290.833 454.89 290.833H468.592C469.26 290.833 469.802 290.292 469.802 289.625C469.802 288.958 469.26 288.416 468.592 288.416Z" fill="white"/>
<path d="M423.341 294.073H421.136C420.468 294.073 419.926 294.614 419.926 295.281C419.926 295.949 420.468 296.49 421.136 296.49H423.341C424.009 296.49 424.551 295.949 424.551 295.281C424.551 294.614 424.009 294.073 423.341 294.073Z" fill="white"/>
<path d="M448.555 294.073H446.351C445.682 294.073 445.14 294.614 445.14 295.281C445.14 295.949 445.682 296.49 446.351 296.49H448.555C449.224 296.49 449.765 295.949 449.765 295.281C449.765 294.614 449.224 294.073 448.555 294.073Z" fill="white"/>
<path d="M455.699 294.073H453.495C452.826 294.073 452.284 294.614 452.284 295.281C452.284 295.949 452.826 296.49 453.495 296.49H455.699C456.368 296.49 456.909 295.949 456.909 295.281C456.909 294.614 456.368 294.073 455.699 294.073Z" fill="white"/>
<path d="M441.697 293.871H427.995C427.326 293.871 426.784 294.413 426.784 295.08C426.784 295.747 427.326 296.288 427.995 296.288H441.697C442.365 296.288 442.907 295.747 442.907 295.08C442.907 294.413 442.365 293.871 441.697 293.871Z" fill="white"/>
<path d="M428.384 315.764H426.179C425.511 315.764 424.969 316.305 424.969 316.973C424.969 317.64 425.511 318.181 426.179 318.181H428.384C429.052 318.181 429.594 317.64 429.594 316.973C429.594 316.305 429.052 315.764 428.384 315.764Z" fill="white"/>
<path d="M435.528 315.764H433.323C432.655 315.764 432.113 316.305 432.113 316.973C432.113 317.64 432.655 318.181 433.323 318.181H435.528C436.196 318.181 436.738 317.64 436.738 316.973C436.738 316.305 436.196 315.764 435.528 315.764Z" fill="white"/>
<path d="M455.144 315.966H441.442C440.774 315.966 440.232 316.507 440.232 317.174C440.232 317.842 440.774 318.383 441.442 318.383H455.144C455.813 318.383 456.355 317.842 456.355 317.174C456.355 316.507 455.813 315.966 455.144 315.966Z" fill="white"/>
<path d="M403.17 315.764H400.965C400.297 315.764 399.755 316.305 399.755 316.973C399.755 317.64 400.297 318.181 400.965 318.181H403.17C403.838 318.181 404.38 317.64 404.38 316.973C404.38 316.305 403.838 315.764 403.17 315.764Z" fill="white"/>
<path d="M421.525 315.966H407.823C407.155 315.966 406.613 316.507 406.613 317.174C406.613 317.842 407.155 318.383 407.823 318.383H421.525C422.194 318.383 422.736 317.842 422.736 317.174C422.736 316.507 422.194 315.966 421.525 315.966Z" fill="white"/>
<path d="M409.893 310.309H407.689C407.02 310.309 406.478 310.85 406.478 311.518C406.478 312.185 407.02 312.726 407.689 312.726H409.893C410.562 312.726 411.104 312.185 411.104 311.518C411.104 310.85 410.562 310.309 409.893 310.309Z" fill="white"/>
<path d="M435.108 310.309H432.903C432.235 310.309 431.693 310.85 431.693 311.518C431.693 312.185 432.235 312.726 432.903 312.726H435.108C435.776 312.726 436.318 312.185 436.318 311.518C436.318 310.85 435.776 310.309 435.108 310.309Z" fill="white"/>
<path d="M442.252 310.309H440.047C439.379 310.309 438.837 310.85 438.837 311.518C438.837 312.185 439.379 312.726 440.047 312.726H442.252C442.92 312.726 443.462 312.185 443.462 311.518C443.462 310.85 442.92 310.309 442.252 310.309Z" fill="white"/>
<path d="M428.249 310.511H414.547C413.879 310.511 413.337 311.052 413.337 311.719C413.337 312.387 413.879 312.928 414.547 312.928H428.249C428.918 312.928 429.459 312.387 429.459 311.719C429.459 311.052 428.918 310.511 428.249 310.511Z" fill="white"/>
<path d="M416.617 304.854H414.412C413.744 304.854 413.202 305.395 413.202 306.063C413.202 306.73 413.744 307.271 414.412 307.271H416.617C417.286 307.271 417.827 306.73 417.827 306.063C417.827 305.395 417.286 304.854 416.617 304.854Z" fill="white"/>
<path d="M441.831 304.854H439.627C438.958 304.854 438.416 305.395 438.416 306.063C438.416 306.73 438.958 307.271 439.627 307.271H441.831C442.5 307.271 443.042 306.73 443.042 306.063C443.042 305.395 442.5 304.854 441.831 304.854Z" fill="white"/>
<path d="M448.975 304.854H446.771C446.102 304.854 445.56 305.395 445.56 306.063C445.56 306.73 446.102 307.271 446.771 307.271H448.975C449.644 307.271 450.186 306.73 450.186 306.063C450.186 305.395 449.644 304.854 448.975 304.854Z" fill="white"/>
<path d="M434.973 305.056H421.271C420.602 305.056 420.061 305.597 420.061 306.264C420.061 306.932 420.602 307.473 421.271 307.473H434.973C435.641 307.473 436.183 306.932 436.183 306.264C436.183 305.597 435.641 305.056 434.973 305.056Z" fill="white"/>
<path d="M423.341 299.399H421.136C420.468 299.399 419.926 299.94 419.926 300.608C419.926 301.275 420.468 301.816 421.136 301.816H423.341C424.009 301.816 424.551 301.275 424.551 300.608C424.551 299.94 424.009 299.399 423.341 299.399Z" fill="white"/>
<path d="M448.555 299.399H446.351C445.682 299.399 445.14 299.94 445.14 300.608C445.14 301.275 445.682 301.816 446.351 301.816H448.555C449.224 301.816 449.765 301.275 449.765 300.608C449.765 299.94 449.224 299.399 448.555 299.399Z" fill="white"/>
<path d="M455.699 299.399H453.495C452.826 299.399 452.284 299.94 452.284 300.608C452.284 301.275 452.826 301.816 453.495 301.816H455.699C456.368 301.816 456.909 301.275 456.909 300.608C456.909 299.94 456.368 299.399 455.699 299.399Z" fill="white"/>
<path d="M441.697 299.601H427.995C427.326 299.601 426.784 300.142 426.784 300.809C426.784 301.477 427.326 302.018 427.995 302.018H441.697C442.365 302.018 442.907 301.477 442.907 300.809C442.907 300.142 442.365 299.601 441.697 299.601Z" fill="white"/>
<path d="M391.449 379.695L381.099 363.36L413.585 337.502L426.993 322.668C428.735 320.741 430.953 319.305 433.426 318.502C435.898 317.699 438.538 317.558 441.082 318.093C443.626 318.628 445.985 319.82 447.923 321.55C449.861 323.281 451.31 325.489 452.126 327.954C453.334 331.607 453.075 335.586 451.401 339.051C449.727 342.516 446.771 345.196 443.156 346.526L421.953 354.326L391.449 379.695Z" fill="#FFB6B6"/>
<path d="M148.612 261.253V340.647H204.315V261.253C204.316 260.682 204.134 260.126 203.795 259.666C203.456 259.206 202.978 258.867 202.431 258.698C202.174 258.613 201.904 258.572 201.633 258.574H151.302C150.949 258.574 150.6 258.642 150.274 258.777C149.947 258.911 149.651 259.108 149.401 259.357C149.151 259.606 148.953 259.901 148.818 260.226C148.682 260.552 148.612 260.901 148.612 261.253V261.253ZM170.351 288.533C170.365 286.968 170.998 285.472 172.112 284.37C173.225 283.268 174.729 282.65 176.297 282.65C177.865 282.65 179.369 283.268 180.482 284.37C181.596 285.472 182.229 286.968 182.243 288.533V297.745C182.235 299.315 181.605 300.817 180.491 301.924C179.377 303.031 177.869 303.653 176.297 303.653C174.725 303.653 173.217 303.031 172.103 301.924C170.989 300.817 170.359 299.315 170.351 297.745V288.533Z" fill="#2F2E41"/>
<path d="M148.441 338.108V345.764C148.443 346.161 148.601 346.541 148.881 346.822C149.161 347.103 149.541 347.263 149.938 347.266H202.99C203.387 347.264 203.768 347.105 204.048 346.824C204.329 346.542 204.486 346.161 204.486 345.764V338.108H148.441Z" fill="#3F3D56"/>
<path d="M60.9829 141.635V286.598C60.9844 288.445 61.72 290.216 63.0282 291.523C64.3364 292.829 66.1103 293.563 67.9604 293.565H283.099C284.949 293.563 286.723 292.829 288.031 291.523C289.339 290.216 290.075 288.445 290.076 286.598V141.635C290.072 139.789 289.335 138.02 288.027 136.716C286.719 135.412 284.947 134.678 283.099 134.676H67.9604C66.1119 134.678 64.3397 135.412 63.0319 136.716C61.7241 138.02 60.9873 139.789 60.9829 141.635Z" fill="#3F3D56"/>
<path d="M66.03 143.439V284.81C66.0317 285.797 66.4251 286.743 67.1241 287.441C67.823 288.139 68.7705 288.531 69.759 288.533H281.308C282.296 288.531 283.244 288.139 283.943 287.441C284.642 286.743 285.035 285.797 285.037 284.81V143.439C285.037 142.45 284.644 141.503 283.945 140.803C283.246 140.103 282.297 139.709 281.308 139.707H69.759C68.7693 139.709 67.8209 140.103 67.1218 140.803C66.4227 141.503 66.0301 142.45 66.03 143.439Z" fill="white"/>
<path d="M105.29 346.747C105.505 347.017 105.779 347.234 106.09 347.383C106.402 347.532 106.743 347.608 107.088 347.607H232.946C233.29 347.606 233.63 347.529 233.941 347.381C234.251 347.233 234.525 347.018 234.742 346.751C234.959 346.484 235.113 346.172 235.194 345.838C235.275 345.504 235.281 345.156 235.21 344.82L233.256 335.554C233.175 335.176 233.001 334.824 232.749 334.531C232.497 334.237 232.176 334.011 231.814 333.874C231.552 333.771 231.274 333.719 230.992 333.719H109.034C108.753 333.719 108.474 333.771 108.213 333.874C107.851 334.011 107.53 334.237 107.278 334.531C107.026 334.824 106.851 335.176 106.771 335.554L104.817 344.82C104.747 345.156 104.754 345.503 104.836 345.837C104.917 346.17 105.072 346.481 105.29 346.747Z" fill="#2F2E41"/>
<path d="M274.442 159.182H76.497C76.2913 159.177 76.0955 159.092 75.9516 158.945C75.8077 158.799 75.7271 158.601 75.7271 158.396C75.7271 158.19 75.8077 157.993 75.9516 157.846C76.0955 157.699 76.2913 157.614 76.497 157.61H274.442C274.648 157.614 274.844 157.699 274.988 157.846C275.132 157.993 275.212 158.19 275.212 158.396C275.212 158.601 275.132 158.799 274.988 158.945C274.844 159.092 274.648 159.177 274.442 159.182V159.182Z" fill="#3F3D56"/>
<path d="M89.9714 153.597C92.5192 153.597 94.5846 151.488 94.5846 148.888C94.5846 146.287 92.5192 144.178 89.9714 144.178C87.4236 144.178 85.3582 146.287 85.3582 148.888C85.3582 151.488 87.4236 153.597 89.9714 153.597Z" fill="#3F3D56"/>
<path d="M105.908 153.597C108.456 153.597 110.521 151.488 110.521 148.888C110.521 146.287 108.456 144.178 105.908 144.178C103.36 144.178 101.295 146.287 101.295 148.888C101.295 151.488 103.36 153.597 105.908 153.597Z" fill="#3F3D56"/>
<path d="M121.844 153.597C124.392 153.597 126.458 151.488 126.458 148.888C126.458 146.287 124.392 144.178 121.844 144.178C119.297 144.178 117.231 146.287 117.231 148.888C117.231 151.488 119.297 153.597 121.844 153.597Z" fill="#3F3D56"/>
<path d="M264.846 145.343H253.527C253.303 145.348 253.09 145.441 252.934 145.6C252.777 145.76 252.69 145.975 252.69 146.198C252.69 146.422 252.777 146.636 252.934 146.796C253.09 146.956 253.303 147.049 253.527 147.054H264.846C265.071 147.051 265.286 146.959 265.444 146.799C265.602 146.639 265.691 146.423 265.691 146.198C265.691 145.974 265.602 145.758 265.444 145.598C265.286 145.438 265.071 145.346 264.846 145.343Z" fill="#3F3D56"/>
<path d="M264.846 148.556H253.527C253.303 148.561 253.09 148.653 252.933 148.813C252.777 148.973 252.689 149.187 252.689 149.411C252.689 149.635 252.777 149.849 252.933 150.009C253.09 150.169 253.303 150.261 253.527 150.266H264.846C265.071 150.264 265.287 150.172 265.445 150.012C265.603 149.852 265.692 149.636 265.692 149.411C265.692 149.186 265.603 148.97 265.445 148.81C265.287 148.65 265.071 148.558 264.846 148.556V148.556Z" fill="#3F3D56"/>
<path d="M264.846 151.768H253.527C253.303 151.773 253.09 151.866 252.934 152.026C252.777 152.185 252.69 152.4 252.69 152.624C252.69 152.847 252.777 153.062 252.934 153.222C253.09 153.381 253.303 153.474 253.527 153.479H264.846C265.071 153.476 265.286 153.384 265.444 153.224C265.602 153.064 265.691 152.848 265.691 152.624C265.691 152.399 265.602 152.183 265.444 152.023C265.286 151.863 265.071 151.771 264.846 151.768V151.768Z" fill="#3F3D56"/>
<path d="M537.726 341.468C538.067 342.461 538.715 343.321 539.577 343.923C540.438 344.525 541.468 344.84 542.519 344.821L563.058 344.293C564.117 344.273 565.141 343.91 565.977 343.261C566.812 342.611 567.415 341.708 567.695 340.688L570.601 309.656C571.632 310.122 572.755 310.352 573.887 310.33C574.87 310.305 575.839 310.087 576.738 309.689C577.637 309.29 578.448 308.719 579.126 308.007C579.804 307.295 580.335 306.457 580.688 305.541C581.042 304.624 581.211 303.647 581.186 302.665C581.162 301.683 580.944 300.716 580.545 299.818C580.145 298.921 579.573 298.11 578.86 297.433C578.148 296.756 577.308 296.226 576.39 295.873C575.473 295.521 574.494 295.352 573.511 295.376C573.058 295.375 572.607 295.422 572.165 295.516C571.684 294.996 571.099 294.583 570.448 294.302C569.797 294.022 569.095 293.881 568.386 293.888L536.793 294.703C536.531 294.712 536.27 294.745 536.014 294.799C535.321 294.928 534.664 295.204 534.087 295.608C533.51 296.011 533.026 296.534 532.668 297.14C532.31 297.746 532.086 298.422 532.011 299.122C531.937 299.822 532.013 300.529 532.236 301.197L537.726 341.468ZM571.197 307.548L573.265 300.153C573.5 299.299 573.506 298.398 573.281 297.541C573.381 297.541 573.47 297.493 573.57 297.493C574.988 297.464 576.36 297.997 577.385 298.976C578.41 299.956 579.004 301.3 579.037 302.716C579.07 304.132 578.54 305.503 577.562 306.529C576.584 307.555 575.239 308.152 573.821 308.189C572.904 308.218 571.997 307.996 571.197 307.548Z" fill="#2F2E41"/>
<path d="M536.014 294.799C536.687 298.642 544.254 301.343 553.353 300.874C561.721 300.489 568.562 297.555 569.816 294.078C569.352 293.941 568.87 293.877 568.386 293.888L536.793 294.703C536.531 294.712 536.27 294.744 536.014 294.799V294.799Z" fill="#3F3D56"/>
<path d="M555.021 324.416C555.063 324.405 555.102 324.388 555.138 324.364L559.598 321.449C559.652 321.414 559.697 321.366 559.727 321.31C559.758 321.253 559.774 321.19 559.774 321.126C559.774 321.061 559.758 320.998 559.727 320.941C559.697 320.885 559.653 320.837 559.599 320.802L554.963 317.77C554.92 317.742 554.872 317.722 554.822 317.713C554.772 317.703 554.721 317.703 554.671 317.713C554.621 317.724 554.573 317.744 554.531 317.772C554.489 317.801 554.453 317.838 554.425 317.88C554.397 317.923 554.378 317.971 554.368 318.021C554.359 318.071 554.359 318.122 554.37 318.172C554.38 318.222 554.401 318.269 554.429 318.311C554.458 318.353 554.495 318.389 554.538 318.417L558.679 321.125L554.714 323.717C554.637 323.767 554.581 323.842 554.554 323.93C554.528 324.018 554.534 324.112 554.571 324.196C554.608 324.28 554.673 324.348 554.756 324.388C554.838 324.428 554.932 324.438 555.021 324.416H555.021Z" fill="#2C65A5"/>
<path d="M547.976 324.74C548.051 324.721 548.119 324.68 548.17 324.623C548.222 324.565 548.255 324.494 548.265 324.417C548.276 324.341 548.263 324.263 548.229 324.194C548.195 324.125 548.141 324.067 548.074 324.029L543.963 321.675L547.937 318.728C547.977 318.698 548.012 318.66 548.038 318.616C548.064 318.573 548.081 318.524 548.089 318.474C548.096 318.424 548.094 318.373 548.081 318.323C548.069 318.274 548.047 318.228 548.016 318.187C547.986 318.146 547.948 318.112 547.904 318.086C547.861 318.06 547.812 318.042 547.762 318.035C547.712 318.028 547.66 318.03 547.611 318.043C547.562 318.055 547.515 318.077 547.474 318.107L543.025 321.407C542.974 321.445 542.932 321.496 542.905 321.554C542.878 321.612 542.866 321.676 542.869 321.74C542.873 321.805 542.893 321.867 542.927 321.921C542.961 321.976 543.008 322.021 543.064 322.053L547.688 324.701C547.776 324.751 547.879 324.765 547.976 324.74V324.74Z" fill="#2C65A5"/>
<path d="M554.577 326.97C554.615 326.961 554.651 326.946 554.684 326.925C554.727 326.899 554.765 326.864 554.795 326.823C554.825 326.782 554.847 326.736 554.859 326.686C554.871 326.637 554.873 326.586 554.865 326.535C554.858 326.485 554.84 326.437 554.814 326.393L548.491 316.014C548.437 315.926 548.351 315.863 548.251 315.839C548.151 315.815 548.046 315.832 547.958 315.885C547.87 315.938 547.807 316.024 547.783 316.124C547.759 316.224 547.775 316.329 547.828 316.417L554.151 326.796C554.194 326.867 554.259 326.922 554.336 326.953C554.412 326.985 554.497 326.99 554.577 326.97Z" fill="#2C65A5"/>
<path d="M199.121 201.913H164.861C163.463 201.913 162.33 203.045 162.33 204.44V207.782C162.33 209.178 163.463 210.309 164.861 210.309H199.121C200.518 210.309 201.651 209.178 201.651 207.782V204.44C201.651 203.045 200.518 201.913 199.121 201.913Z" fill="#2C65A5"/>
<path d="M219.091 218.705H144.891C143.493 218.705 142.36 219.836 142.36 221.232V224.574C142.36 225.97 143.493 227.101 144.891 227.101H219.091C220.488 227.101 221.621 225.97 221.621 224.574V221.232C221.621 219.836 220.488 218.705 219.091 218.705Z" fill="#E6E6E6"/>
<path d="M219.091 235.497H144.891C143.493 235.497 142.36 236.628 142.36 238.024V241.366C142.36 242.762 143.493 243.893 144.891 243.893H219.091C220.488 243.893 221.621 242.762 221.621 241.366V238.024C221.621 236.628 220.488 235.497 219.091 235.497Z" fill="#E6E6E6"/>
<path d="M225.38 291.726L225.548 292.256L225.557 292.274L230.616 307.631L236.436 325.328L247.384 358.586L247.491 363.752V363.77L248.304 405.328L246.049 410.962L248.587 420.2C248.587 420.2 247.42 406.237 241.158 414.255C237.612 418.812 233.464 423.475 230.059 427.846C235.02 429.851 240.062 431.664 245.182 433.286C246.288 433.639 247.402 433.975 248.517 434.31C248.755 434.381 248.994 434.452 249.233 434.522C266.207 439.535 283.756 442.351 301.448 442.903C302.368 442.929 303.27 442.947 304.146 442.965C304.455 442.974 304.756 442.982 305.057 442.982C306.047 442.991 307.029 443 308.019 443C310.018 443 312.008 442.971 313.989 442.912C328.652 442.499 343.229 440.53 357.475 437.039C357.378 431.166 357.113 424.305 356.732 416.975C356.555 413.381 352.584 409.486 352.346 405.724C352.178 402.899 355.742 400.24 355.556 397.37C354.353 379.7 352.85 386.483 351.735 373.969C351.62 372.742 351.514 371.567 351.417 370.446C350.701 362.41 350.205 357.385 350.205 357.385L354.964 327.439L362.437 280.423L361.862 279.478L361.216 279.16L321.798 259.679L319.658 254.204C319.034 252.626 317.953 251.271 316.551 250.313C315.15 249.354 313.494 248.836 311.796 248.826L285.83 248.72C284.482 248.714 283.152 249.028 281.951 249.638C280.75 250.248 279.712 251.135 278.922 252.225L271.891 261.948L225.38 291.726Z" fill="#3F3D56"/>
<path d="M253.372 351.185L247.491 363.752L243.475 372.336L236.568 408.446L233.11 412.11L230.147 399.137L199.138 406.012C198.121 400.369 198.866 406.202 198.238 400.012C198.415 399.835 198.601 399.659 198.786 399.482C199.282 399.023 199.697 398.59 199.688 398.175C199.335 376.822 200.396 340.482 209.258 318.467C210.646 314.872 212.476 311.464 214.706 308.32C214.883 308.081 215.051 307.843 215.219 307.605C219.305 301.891 221.887 296.266 225.549 292.265V292.256C225.571 292.238 225.592 292.217 225.61 292.194C225.624 292.188 225.636 292.179 225.646 292.168L250.798 278.851L251.877 309.123L252.647 330.883L253.372 351.185Z" fill="#3F3D56"/>
<path d="M344.067 354.755L351.414 370.45L353.978 375.916L360.883 412.023L364.33 415.679L367.299 402.708L368.695 402.422L393.859 397.218L401.193 420.478C402.846 417.727 403.498 414.491 403.037 411.317C402.576 408.143 401.032 405.224 398.665 403.056C398.164 402.603 397.747 402.162 397.759 401.746C398.176 376.631 396.637 330.771 382.744 311.896C378.331 305.906 375.683 299.94 371.831 295.772C371.819 295.76 371.819 295.748 371.807 295.748L362.433 280.422L361.861 279.481L361.217 279.159L344.067 354.755Z" fill="#3F3D56"/>
<path d="M299.563 241.341C318.641 241.341 334.107 225.897 334.107 206.847C334.107 187.797 318.641 172.353 299.563 172.353C280.484 172.353 265.018 187.797 265.018 206.847C265.018 225.897 280.484 241.341 299.563 241.341Z" fill="#FFB6B6"/>
<path d="M346.254 182.753C345.986 182.468 345.664 182.239 345.305 182.081C344.947 181.922 344.56 181.838 344.169 181.832L344.688 180.392C344.858 179.939 344.903 179.448 344.821 178.971C344.738 178.494 344.53 178.048 344.217 177.678C343.905 177.307 343.5 177.027 343.043 176.864C342.586 176.702 342.094 176.664 341.618 176.754L339.726 177.118L339.905 175.856C339.973 175.386 339.918 174.906 339.744 174.464C339.57 174.022 339.285 173.633 338.915 173.334C338.545 173.036 338.103 172.839 337.634 172.762C337.164 172.686 336.683 172.733 336.238 172.899C335.832 173.058 335.396 173.125 334.961 173.094C334.527 173.063 334.104 172.936 333.726 172.721C333.345 172.512 333.015 172.224 332.758 171.875C332.501 171.526 332.323 171.125 332.237 170.7L331.578 167.526L331.508 167.356C328.299 162.014 322.128 158.128 314.576 156.704C307.855 155.427 300.963 156.077 294.319 156.688C291.683 156.936 288.706 157.215 286.225 158.732C284.116 160.033 282.333 162.634 282.697 165.258C276.146 163.253 269.122 167.255 265.641 172.303C261.517 178.31 260.842 185.834 260.734 191.718C260.439 205.636 263.315 217.024 269.262 225.57C269.696 226.19 269.804 227.482 270.665 227.916L270.487 227.629C271.448 228.109 272.425 228.884 272.06 229.712C271.014 232.096 277.968 237.368 282.868 239.11C291.807 242.291 303.692 242.02 312.049 240.875L312.344 238.901C315.359 238.49 317.484 237.709 318.081 236.485C319.135 235.587 320.034 234.782 320.817 234.039L320.825 234.031C320.841 234.016 320.872 233.993 320.887 233.977C324.663 230.362 325.539 228.303 325.934 225.168C326.314 222.094 325.64 218.975 324.95 216.165C339.478 218.41 319.228 200.713 332.764 197.291C332.92 197.244 333.077 197.205 333.237 197.175C333.633 197.082 334.028 196.99 334.408 196.881C336.239 196.385 337.992 195.637 339.618 194.659C343.401 192.36 344.649 189.31 346.603 185.873C346.885 185.384 347.003 184.817 346.94 184.256C346.878 183.695 346.637 183.169 346.254 182.753V182.753Z" fill="#2F2E41"/>
<path d="M421.742 357.211C421.735 358.565 421.719 360.462 421.657 362.807C421.649 363.133 421.642 363.465 421.634 363.806C421.533 368.118 421.432 371.733 421.269 375.751C421.262 376.03 421.254 376.3 421.238 376.579C421.021 382.184 420.68 388.71 420.091 399.044C418.998 418.134 417.091 401.669 415.176 408.365C415.083 408.698 414.982 409.093 414.889 409.557C414.599 411.242 414.11 412.887 413.431 414.457C412.416 415.061 411.369 415.642 410.338 416.222C407.4 417.856 404.415 419.427 401.407 420.921C399.717 421.757 398.019 422.578 396.313 423.367C396.042 423.491 395.778 423.615 395.515 423.731C386.781 427.765 377.779 431.195 368.574 433.996C366.776 434.538 364.985 435.064 363.171 435.552C361.279 436.079 359.387 436.574 357.472 437.038C343.227 440.531 328.65 442.5 313.987 442.914C312.01 442.976 310.018 442.999 308.018 442.999C307.025 442.999 306.048 442.992 305.056 442.984C304.754 442.984 304.451 442.976 304.149 442.968C303.273 442.945 302.366 442.93 301.451 442.906C283.758 442.355 266.21 439.538 249.236 434.523L248.515 434.314C247.399 433.973 246.29 433.64 245.182 433.284C240.065 431.666 235.023 429.855 230.056 427.85C226.265 426.325 222.518 424.689 218.815 422.942C218.781 422.932 218.749 422.917 218.722 422.895C217.946 422.539 217.163 422.167 216.388 421.788C216.287 421.734 216.179 421.68 216.07 421.626C213.178 420.217 210.318 418.741 207.488 417.198C205.108 411.74 201.759 410.695 199.681 405.895C199.076 404.469 198.639 402.978 198.379 401.452C198.379 401.436 198.371 401.421 198.371 401.398C198.588 404.277 197.448 396.288 198.363 401.367C198.355 401.274 198.348 401.173 198.34 401.057C198.317 400.778 198.286 400.438 198.239 400.012C195.58 374.086 195.75 344.437 194.595 320.006C194.518 318.427 194.438 316.915 194.355 315.47C194.332 314.99 194.301 314.517 194.27 314.053C194.324 313.914 194.386 313.767 194.456 313.627C194.471 313.587 194.489 313.548 194.51 313.511C194.533 313.463 194.559 313.417 194.587 313.372C194.603 313.349 194.626 313.318 194.642 313.294C194.653 313.268 194.666 313.242 194.681 313.217C194.75 313.109 194.828 312.992 194.913 312.884C194.952 312.838 194.983 312.799 195.022 312.76C195.048 312.721 195.08 312.684 195.115 312.652C195.138 312.615 195.167 312.581 195.2 312.551C195.231 312.52 195.262 312.481 195.301 312.443C195.317 312.418 195.338 312.397 195.363 312.381C195.424 312.311 195.492 312.246 195.564 312.187C195.841 311.933 196.136 311.7 196.448 311.491C196.557 311.421 196.673 311.351 196.781 311.274C197.563 310.807 198.385 310.413 199.239 310.097C199.534 309.989 199.828 309.888 200.146 309.78C200.262 309.749 200.371 309.71 200.487 309.671C200.658 309.617 200.828 309.563 201.007 309.524C201.891 309.261 202.844 309.037 203.875 308.828C203.999 308.804 204.131 308.781 204.263 308.75C204.449 308.712 204.643 308.681 204.837 308.65C205.1 308.603 205.372 308.557 205.643 308.51C207.945 308.146 210.558 307.875 213.442 307.697C213.713 307.682 213.985 307.666 214.256 307.651C214.574 307.635 214.892 307.62 215.217 307.605C215.489 307.589 215.768 307.581 216.047 307.574C216.318 307.558 216.597 307.55 216.884 307.543C217.667 307.519 218.474 307.496 219.295 307.481C221.637 307.434 224.102 307.45 226.692 307.504C227.893 307.535 229.118 307.566 230.374 307.62C230.459 307.62 230.537 307.628 230.614 307.628C231.708 307.666 232.808 307.713 233.94 307.775C234.731 307.814 235.53 307.852 236.328 307.899C237.08 307.945 237.84 307.992 238.607 308.046C239.204 308.077 239.801 308.123 240.406 308.162C240.918 308.201 241.429 308.239 241.941 308.27L242.639 308.317C243.019 308.348 243.399 308.371 243.786 308.41C244.639 308.479 245.492 308.549 246.36 308.619C247.221 308.696 248.097 308.773 248.973 308.851C249.849 308.928 250.733 309.013 251.616 309.099C251.71 309.106 251.795 309.114 251.88 309.122C252.686 309.207 253.493 309.284 254.307 309.37C254.493 309.385 254.687 309.4 254.873 309.424C255.649 309.502 256.44 309.593 257.223 309.676C257.464 309.702 257.703 309.727 257.944 309.753C258.557 309.82 259.162 309.878 259.78 309.95C260.594 310.043 261.424 310.128 262.23 310.237C262.858 310.306 263.486 310.376 264.114 310.453C265.098 310.569 266.099 310.693 267.099 310.825C267.479 310.871 267.858 310.918 268.238 310.972C271.091 311.328 273.975 311.723 276.906 312.133C281.348 312.76 285.86 313.441 290.403 314.177C294.954 314.912 299.531 315.689 304.133 316.507C305.296 316.716 306.459 316.925 307.63 317.142C308.157 317.242 308.684 317.343 309.211 317.444C310.111 317.606 311.01 317.777 311.909 317.947C312.809 318.117 313.708 318.287 314.607 318.465C315.677 318.674 316.755 318.883 317.825 319.093C324.872 320.486 331.88 321.972 338.718 323.528C339.842 323.784 340.967 324.047 342.083 324.302C344.316 324.821 346.528 325.347 348.719 325.882C349.324 326.021 349.921 326.168 350.518 326.315C352.007 326.687 353.495 327.058 354.96 327.438L355.216 327.507C356.294 327.77 357.348 328.041 358.402 328.32C360.891 328.97 363.338 329.628 365.744 330.294C367.341 330.735 368.92 331.182 370.481 331.633C372.815 332.307 375.102 332.988 377.327 333.677C377.877 333.847 378.428 334.018 378.97 334.18C380.599 334.683 382.203 335.194 383.762 335.705C385.002 336.108 386.212 336.518 387.405 336.928C388.599 337.339 389.77 337.749 390.917 338.159C391.654 338.422 392.383 338.701 393.111 338.964C394.158 339.351 395.189 339.738 396.197 340.126C396.507 340.242 396.81 340.366 397.112 340.482C397.306 340.567 397.492 340.636 397.678 340.714C398.042 340.861 398.414 341 398.771 341.147C399.135 341.287 399.492 341.434 399.849 341.589C400.197 341.728 400.554 341.875 400.895 342.022C401.244 342.161 401.585 342.309 401.926 342.463C402.213 342.58 402.492 342.703 402.764 342.827C403.314 343.067 403.865 343.307 404.399 343.555C404.663 343.679 404.927 343.795 405.19 343.919L405.795 344.197C405.88 344.244 405.965 344.283 406.051 344.321C406.245 344.414 406.446 344.515 406.64 344.608C407.09 344.817 407.532 345.041 407.966 345.25C408.547 345.544 409.113 345.839 409.656 346.125C410.206 346.419 410.741 346.713 411.253 347C411.338 347.046 411.416 347.093 411.501 347.139C411.617 347.201 411.734 347.271 411.85 347.333C412.245 347.557 412.625 347.789 413.005 348.014C413.749 348.471 414.455 348.92 415.114 349.369C415.261 349.469 415.401 349.57 415.548 349.663C416.036 350.011 416.501 350.352 416.936 350.7C416.936 350.708 416.936 350.708 416.943 350.708C417.091 350.816 417.23 350.932 417.37 351.041C417.486 351.149 417.61 351.242 417.726 351.35C418.129 351.699 418.502 352.031 418.843 352.372C418.957 352.477 419.066 352.588 419.168 352.705C419.214 352.742 419.255 352.784 419.292 352.829C419.447 352.984 419.587 353.139 419.719 353.293C419.739 353.315 419.757 353.338 419.773 353.363C419.959 353.58 420.13 353.797 420.293 354.013C420.37 354.122 420.455 354.23 420.525 354.338C420.618 354.47 420.711 354.609 420.789 354.741C420.858 354.849 420.92 354.966 420.982 355.074C421.147 355.353 421.287 355.646 421.401 355.949C421.488 356.154 421.558 356.366 421.61 356.583C421.669 356.789 421.713 356.999 421.742 357.211V357.211Z" fill="#2F2E41"/>
<path opacity="0.2" d="M421.742 357.211C421.735 358.565 421.719 360.462 421.657 362.807C421.649 363.133 421.634 363.465 421.626 363.806C421.548 367.096 421.432 371.16 421.269 375.751C421.262 376.03 421.254 376.3 421.238 376.579C421.021 382.184 420.68 388.71 420.091 399.044C418.998 418.134 417.091 401.669 415.176 408.365C409.857 405.098 404.027 401.676 397.794 398.162C396.67 397.527 395.535 396.89 394.391 396.25C381.924 389.306 368 382.029 353.464 374.822C352.89 374.536 352.309 374.249 351.735 373.97C318.437 357.536 282.092 341.55 252.648 330.882C246.965 328.823 241.538 326.965 236.437 325.332C225.691 321.903 216.404 319.503 209.256 318.465C201.813 317.382 196.673 317.769 194.595 320.006C194.518 318.427 194.437 316.915 194.355 315.47C194.324 314.99 194.293 314.517 194.262 314.053C194.31 313.926 194.372 313.804 194.432 313.681C194.441 313.663 194.447 313.645 194.456 313.627C194.47 313.587 194.489 313.548 194.51 313.511C194.533 313.463 194.559 313.416 194.587 313.372C194.613 313.317 194.644 313.265 194.68 313.217C194.75 313.108 194.828 312.992 194.913 312.884C194.976 312.803 195.043 312.725 195.115 312.652C195.138 312.615 195.167 312.581 195.2 312.551C195.231 312.52 195.262 312.481 195.301 312.443C195.317 312.418 195.338 312.397 195.363 312.381C195.424 312.311 195.491 312.246 195.564 312.187C195.841 311.933 196.136 311.7 196.448 311.491C196.557 311.421 196.673 311.351 196.781 311.274C197.563 310.807 198.385 310.413 199.239 310.097C199.534 309.989 199.828 309.888 200.146 309.78C200.262 309.749 200.371 309.71 200.487 309.671C200.658 309.617 200.828 309.563 201.007 309.524C201.89 309.261 202.844 309.037 203.875 308.828C204.185 308.766 204.511 308.704 204.837 308.65C205.1 308.603 205.371 308.557 205.643 308.51C207.945 308.146 210.558 307.875 213.442 307.697C213.713 307.682 213.985 307.666 214.256 307.651C214.574 307.635 214.892 307.62 215.217 307.604C215.489 307.589 215.768 307.581 216.047 307.574C216.318 307.558 216.597 307.55 216.884 307.543C217.667 307.519 218.474 307.496 219.295 307.481C221.637 307.442 224.102 307.457 226.691 307.512C227.893 307.535 229.118 307.574 230.374 307.628C230.452 307.628 230.537 307.635 230.614 307.635C231.707 307.666 232.816 307.721 233.94 307.775C234.731 307.813 235.53 307.852 236.328 307.899C237.08 307.945 237.84 307.992 238.607 308.046C239.204 308.077 239.801 308.123 240.406 308.162C240.918 308.201 241.429 308.239 241.941 308.27C242.554 308.317 243.166 308.363 243.786 308.41C244.639 308.479 245.492 308.549 246.36 308.619C247.221 308.696 248.097 308.773 248.973 308.851C249.849 308.928 250.733 309.013 251.616 309.099C251.709 309.106 251.795 309.114 251.88 309.122C252.686 309.207 253.493 309.284 254.307 309.369C258.819 309.826 263.463 310.36 268.238 310.972C271.091 311.336 273.98 311.725 276.906 312.141C281.348 312.768 285.86 313.449 290.403 314.177C294.954 314.912 299.531 315.689 304.133 316.507C305.296 316.716 306.459 316.925 307.63 317.142C309.056 317.405 310.483 317.673 311.909 317.947C312.809 318.117 313.708 318.287 314.607 318.465C315.677 318.674 316.755 318.883 317.825 319.093C324.872 320.486 331.88 321.972 338.718 323.528C339.842 323.784 340.967 324.047 342.083 324.302C344.316 324.821 346.528 325.347 348.719 325.882C349.324 326.029 349.921 326.176 350.518 326.323C352.014 326.694 353.495 327.066 354.96 327.438V327.445C355.046 327.461 355.131 327.484 355.216 327.507C356.286 327.778 357.348 328.049 358.402 328.328C360.891 328.978 363.338 329.634 365.744 330.294C367.341 330.743 368.923 331.184 370.481 331.633C372.815 332.315 375.102 332.996 377.327 333.677C377.877 333.847 378.428 334.018 378.97 334.18C380.599 334.691 382.196 335.199 383.762 335.705C385.002 336.108 386.212 336.518 387.405 336.928C388.599 337.339 389.77 337.749 390.917 338.159C391.662 338.422 392.39 338.693 393.111 338.957C394.166 339.344 395.189 339.731 396.197 340.126C396.507 340.242 396.809 340.366 397.112 340.482C397.678 340.698 398.228 340.923 398.771 341.147C399.135 341.287 399.492 341.434 399.849 341.589C400.197 341.728 400.554 341.875 400.895 342.022C401.244 342.161 401.585 342.309 401.926 342.463C402.213 342.58 402.492 342.703 402.764 342.827C403.314 343.067 403.864 343.307 404.399 343.555C404.663 343.679 404.927 343.795 405.19 343.919L405.795 344.197C405.88 344.244 405.965 344.283 406.051 344.321C406.71 344.631 407.345 344.941 407.966 345.25C408.547 345.544 409.113 345.839 409.656 346.125C410.299 346.466 410.912 346.798 411.501 347.139C411.617 347.201 411.733 347.271 411.85 347.333C412.245 347.557 412.625 347.789 413.005 348.014C413.749 348.471 414.455 348.92 415.114 349.369C415.765 349.818 416.37 350.259 416.936 350.7C416.936 350.708 416.936 350.708 416.943 350.708C417.215 350.925 417.478 351.141 417.726 351.35C418.129 351.699 418.502 352.032 418.843 352.372C418.957 352.477 419.066 352.588 419.168 352.705C419.213 352.742 419.255 352.784 419.292 352.829C419.455 353.007 419.618 353.185 419.773 353.363C419.959 353.58 420.13 353.797 420.293 354.013C420.37 354.122 420.455 354.23 420.525 354.338C420.618 354.47 420.711 354.609 420.789 354.741C420.859 354.849 420.921 354.965 420.983 355.074C421.147 355.353 421.287 355.646 421.401 355.949C421.486 356.155 421.556 356.367 421.611 356.583C421.669 356.789 421.713 356.999 421.742 357.211V357.211Z" fill="black"/>
</g>
<defs>
<clipPath id="clip0_33_137">
<rect width="610" height="443" fill="white"/>
</clipPath>
</defs>
</svg>
