<svg width="37" height="37" viewBox="0 0 37 37" fill="none" xmlns="http://www.w3.org/2000/svg">
<rect width="37" height="37" rx="5" fill="#6B2B06"/>
<path d="M10.7713 26H7.47585L12.4972 11.4545H16.4602L21.4744 26H18.179L14.5355 14.7784H14.4219L10.7713 26ZM10.5653 20.2827H18.3494V22.6832H10.5653V20.2827ZM23.2269 26V15.0909H26.2525V26H23.2269ZM24.7468 13.6847C24.297 13.6847 23.9111 13.5355 23.5891 13.2372C23.2719 12.9342 23.1133 12.572 23.1133 12.1506C23.1133 11.7339 23.2719 11.3764 23.5891 11.0781C23.9111 10.7751 24.297 10.6236 24.7468 10.6236C25.1966 10.6236 25.5801 10.7751 25.8974 11.0781C26.2193 11.3764 26.3803 11.7339 26.3803 12.1506C26.3803 12.572 26.2193 12.9342 25.8974 13.2372C25.5801 13.5355 25.1966 13.6847 24.7468 13.6847Z" fill="#FF9900"/>
</svg>
