<svg width="151" height="143" viewBox="0 0 151 143" fill="none" xmlns="http://www.w3.org/2000/svg">
<path d="M112.653 25.7017C122.614 36.5134 130.966 44.7596 137.808 54.6551C144.65 64.6421 149.983 76.2785 150.788 88.9226C151.593 101.658 147.87 115.402 138.915 125.298C129.96 135.193 115.772 141.24 101.886 142.248C88.0002 143.164 74.4162 139.041 61.5366 134.735C48.5563 130.429 36.2804 125.939 25.5139 118.242C14.7473 110.638 5.38949 99.7343 1.7671 87.0901C-1.8553 74.5376 0.157145 60.2442 7.20069 48.6078C14.1436 37.0632 26.1176 28.2672 38.8966 18.6466C51.7762 9.11768 65.4608 -1.32752 78.2398 0.138471C90.9182 1.60446 102.59 14.89 112.653 25.7017Z" fill="#244365"/>
<path d="M97.9234 39.2467C104.195 46.081 109.453 51.2937 113.761 57.5488C118.068 63.8619 121.426 71.2175 121.933 79.2102C122.44 87.2608 120.096 95.9485 114.458 102.204C108.819 108.459 99.8872 112.281 91.145 112.919C82.4028 113.498 73.8507 110.891 65.742 108.169C57.5699 105.447 49.8413 102.609 43.0629 97.744C36.2846 92.9368 30.3931 86.0445 28.1125 78.0518C25.8319 70.117 27.0989 61.0818 31.5334 53.7262C35.9045 46.4285 43.443 40.8684 51.4884 34.787C59.5971 28.7635 68.2126 22.1608 76.2579 23.0875C84.2399 24.0142 91.5885 32.4123 97.9234 39.2467Z" fill="#F2F2F2"/>
</svg>
