<svg width="544" height="513" viewBox="0 0 544 513" fill="none" xmlns="http://www.w3.org/2000/svg">
<path d="M448.3 7.1377C510.773 33.1012 542.009 139.404 543.293 247.667C544.577 355.93 515.908 465.173 453.862 499.954C391.389 534.245 295.968 493.586 232.211 457.335C168.454 420.594 136.79 387.772 100.419 353.481C64.4753 318.699 24.2529 282.449 7.99277 227.582C-8.26734 172.716 -0.137272 99.7244 36.234 73.2711C72.1775 47.3076 135.934 68.3723 214.667 51.7165C293.401 35.0607 386.254 -19.3157 448.3 7.1377Z" fill="#244365"/>
<path d="M399.335 88.2843C441.204 103.592 462.194 166.417 463.118 230.421C464.043 294.426 444.902 359.03 403.357 379.634C361.525 399.95 297.574 375.976 254.84 354.588C212.105 332.91 190.872 313.527 166.485 293.279C142.385 272.74 115.417 251.336 104.491 218.91C93.5648 186.484 98.9677 143.326 123.318 127.662C147.382 112.288 190.108 124.698 242.844 114.798C295.58 104.897 357.753 72.6871 399.335 88.2843Z" fill="#F2F2F2"/>
</svg>
