<svg width="236" height="254" viewBox="0 0 236 254" fill="none" xmlns="http://www.w3.org/2000/svg">
<path d="M219.067 22.0312C237.296 43.2263 237.47 80.4046 234.692 111.329C232.088 142.253 226.88 166.922 215.769 190.028C204.658 213.135 187.644 234.677 164.727 245.622C141.811 256.393 112.818 256.567 87.124 247.359C61.4298 238.152 39.0342 219.563 22.5413 195.414C6.04837 171.266 -4.71541 141.558 2.05536 116.888C8.65252 92.2183 32.6106 72.413 56.5687 52.2603C80.3532 31.9339 103.791 11.0862 133.999 3.4421C164.033 -4.37576 200.665 0.836159 219.067 22.0312Z" fill="#244365"/>
<path d="M194.229 52.6535C207.978 68.675 208.109 96.7783 206.014 120.154C204.049 143.529 200.121 162.177 191.741 179.644C183.36 197.11 170.528 213.394 153.244 221.667C135.959 229.809 114.092 229.94 94.7122 222.98C75.3326 216.02 58.441 201.969 46.0015 183.715C33.5619 165.461 25.4435 143.004 30.5502 124.356C35.5261 105.708 53.5961 90.7374 71.6662 75.5039C89.6054 60.139 107.283 44.3801 130.067 38.6019C152.72 32.6923 180.349 36.6321 194.229 52.6535Z" fill="#F2F2F2"/>
</svg>
