<svg width="549" height="549" viewBox="0 0 549 549" fill="none" xmlns="http://www.w3.org/2000/svg">
<g id="contact">
<path id="Vector" d="M271.619 91.4527C326.697 95.1512 383.92 117.169 427.271 157.571C470.436 197.783 499.729 256.381 493.841 303.337C487.933 349.943 446.865 385.259 407.427 407.104C367.989 428.949 329.851 437.645 283.43 441.817C237.03 446.339 182.163 446.147 148.093 418.201C113.839 390.066 100.382 334.178 97.4472 279.513C94.8627 224.876 102.821 171.812 133.328 137.539C163.65 103.076 216.562 88.1048 271.619 91.4527Z" fill="#0D6FDE" fill-opacity="0.2"/>
<g id="undraw_business_deal_re_up4u 1" clip-path="url(#clip0_72_163)">
<path id="Vector_2" d="M433.927 170.382C431.838 193.387 425.889 217.646 416.559 241.052C405.021 269.996 389.256 295.49 370.97 314.778L369.955 313.893C388.153 294.698 403.846 269.317 415.336 240.492C425.72 214.443 431.896 187.336 433.205 162.112L434.502 162.329C434.364 164.993 434.173 167.677 433.927 170.382Z" fill="#F2F2F2"/>
<path id="Vector_3" d="M442.244 303.994C416.56 344.85 385.399 374.042 354.502 386.192L353.877 385.046C384.56 372.981 415.538 343.938 441.105 303.269L442.244 303.994Z" fill="#F2F2F2"/>
<path id="Vector_4" d="M433.303 199.025C431.215 222.03 425.266 246.289 415.935 269.695C404.397 298.639 388.633 324.133 370.347 343.421L369.332 342.536C387.53 323.341 403.222 297.96 414.712 269.135C425.096 243.086 431.273 215.979 432.582 190.755L433.879 190.972C433.741 193.636 433.549 196.32 433.303 199.025Z" fill="#F2F2F2"/>
<path id="Vector_5" d="M309.231 234.943C314.791 234.943 319.299 230.436 319.299 224.877C319.299 219.317 314.791 214.81 309.231 214.81C303.671 214.81 299.164 219.317 299.164 224.877C299.164 230.436 303.671 234.943 309.231 234.943Z" fill="#1E62AD"/>
<path id="Vector_6" d="M314.399 220.681C314.248 220.537 314.047 220.456 313.837 220.456C313.628 220.456 313.427 220.537 313.275 220.681C311.139 222.385 309.22 224.344 307.562 226.516C307.155 225.728 306.748 224.941 306.341 224.153C305.871 223.244 304.499 224.047 304.968 224.956C305.564 226.107 306.159 227.259 306.755 228.411C306.826 228.529 306.927 228.626 307.047 228.693C307.168 228.761 307.303 228.796 307.441 228.796C307.579 228.796 307.714 228.761 307.834 228.693C307.955 228.626 308.055 228.529 308.127 228.411C309.894 225.923 312.006 223.699 314.399 221.805C314.547 221.655 314.63 221.454 314.63 221.243C314.63 221.033 314.547 220.831 314.399 220.681Z" fill="white"/>
<path id="Vector_7" d="M264.184 253.421L249.002 229.582L266.582 220.168L271.196 238.356L303.707 255.922C304.99 255.46 306.381 255.381 307.708 255.696C309.035 256.01 310.242 256.704 311.182 257.693C312.122 258.681 312.754 259.922 313.001 261.263C313.247 262.605 313.099 263.989 312.572 265.247C312.046 266.505 311.164 267.583 310.036 268.35C308.907 269.116 307.58 269.537 306.216 269.562C304.852 269.587 303.511 269.215 302.355 268.491C301.199 267.766 300.279 266.722 299.706 265.484L264.184 253.421Z" fill="#A0616A"/>
<path id="Vector_8" d="M237.91 200.99C233.14 207.992 250.092 233.447 250.092 233.447C250.918 231.667 258.812 251.654 260.134 250.473C263.892 247.118 269.775 237.77 273.045 237.354C274.915 237.116 268.708 223.855 268.708 223.855C268.708 223.855 265.871 216.025 262.022 206.023C260.986 203.175 259.246 200.635 256.965 198.64C254.683 196.645 251.934 195.26 248.973 194.613C248.973 194.613 242.68 193.987 237.91 200.99Z" fill="#3F3D56"/>
<path id="Vector_9" d="M238.143 429.14L245.353 429.14L248.783 401.333L238.142 401.334L238.143 429.14Z" fill="#A0616A"/>
<path id="Vector_10" d="M236.304 426.786L238.333 426.786L246.256 423.565L250.503 426.786H250.504C252.903 426.786 255.205 427.739 256.902 429.436C258.599 431.133 259.552 433.434 259.552 435.833V436.127L236.304 436.128L236.304 426.786Z" fill="#2F2E41"/>
<path id="Vector_11" d="M271.64 429.14L278.85 429.14L282.28 401.333L271.639 401.334L271.64 429.14Z" fill="#A0616A"/>
<path id="Vector_12" d="M269.801 426.786L271.83 426.786L279.753 423.565L284 426.786H284C286.4 426.786 288.702 427.739 290.399 429.436C292.096 431.133 293.049 433.434 293.049 435.833V436.127L269.801 436.128L269.801 426.786Z" fill="#2F2E41"/>
<path id="Vector_13" d="M274.761 277.12L227.863 278.292C218.956 283.129 218.821 293.598 221.739 306.028C221.739 306.028 220.754 313.416 222.724 315.386C224.695 317.357 225.68 317.357 224.695 320.804C223.71 324.252 228.915 329.883 228.283 330.515C227.65 331.147 226.173 334.595 226.173 334.595L231.099 362.669C231.099 362.669 234.547 411.43 235.532 412.415C236.517 413.4 237.502 412.415 236.517 414.878C235.532 417.34 234.547 416.355 235.532 417.34C236.405 418.281 237.227 419.268 237.995 420.296H249.905C249.905 420.296 250.803 415.37 250.803 414.878C250.803 414.385 251.788 411.43 251.788 410.938C251.788 410.445 250.917 409.574 250.917 409.574C250.616 408.573 250.413 407.545 250.31 406.505C250.31 405.52 247.354 367.595 247.354 367.595L253.266 318.342L267.551 366.61C267.551 366.61 267.551 408.967 268.536 409.953C269.521 410.938 269.521 410.445 269.029 412.415C268.536 414.385 266.566 413.893 268.044 415.37C269.521 416.848 270.014 414.385 269.521 416.848L269.029 419.311L283.807 419.522C283.807 419.522 285.777 415.37 284.792 413.893C283.807 412.415 283.866 412.819 285.068 410.4C286.27 407.982 286.763 407.49 286.27 406.997C285.777 406.505 285.777 403.885 285.777 403.885L283.314 356.759C283.314 356.759 282.822 307.013 282.822 305.536C282.785 304.775 282.925 304.017 283.231 303.32V301.314L281.344 294.208L274.761 277.12Z" fill="#2F2E41"/>
<path id="Vector_14" d="M246.589 179.617C254.636 179.617 261.16 173.094 261.16 165.048C261.16 157.001 254.636 150.478 246.589 150.478C238.541 150.478 232.017 157.001 232.017 165.048C232.017 173.094 238.541 179.617 246.589 179.617Z" fill="#A0616A"/>
<path id="Vector_15" d="M253.874 189.246C257.013 191.112 258.891 194.541 259.969 198.03C261.965 204.489 263.166 211.167 263.547 217.917L264.685 238.124L278.787 281.151C266.565 291.491 220.628 283.501 220.628 283.501C220.628 283.501 219.218 283.031 220.628 281.621C222.038 280.211 223.411 281.46 222.001 280.051C220.591 278.641 221.563 280.211 222.033 278.801C222.503 277.391 222.033 278.331 221.563 277.861C221.093 277.391 225.201 273.162 225.201 273.162L221.441 248.464L216.741 198.646C222.381 191.596 233.725 187.441 233.725 187.441L236.656 182.165L251.312 183.338L253.874 189.246Z" fill="#3F3D56"/>
<path id="Vector_16" d="M258.6 157.307C259.733 158.152 260.572 159.33 260.999 160.677C261.164 158.476 261.174 156.267 261.031 154.065C260.859 152.518 259.769 152.17 258.508 151.767C257.369 151.403 256.08 150.991 255.734 149.489C251.153 145.034 243.18 145.258 237.723 146.812C234.72 147.668 232.992 148.766 232.838 149.41L232.806 149.543L232.684 149.604C230.369 150.761 229.919 154.415 229.948 157.276C230.005 162.667 231.867 168.79 232.915 169.288C232.971 169.314 232.985 169.304 233.009 169.284C234.588 168.022 236.515 169.379 237.362 170.118C237.861 166.767 239.469 163.68 241.929 161.35C244.388 159.021 247.558 157.582 250.931 157.265C252.033 157.158 253.126 156.975 254.202 156.717C254.748 156.575 255.309 156.502 255.873 156.497C256.843 156.483 257.795 156.765 258.6 157.307Z" fill="#2F2E41"/>
<path id="Vector_17" d="M349.058 288.729L377.088 260.269L384.473 237.507L372.589 232.701C366.702 238.638 360.641 256.815 360.641 256.815L341.51 282.488C341.357 282.545 341.205 282.605 341.055 282.676C340.174 283.092 339.415 283.728 338.852 284.522C338.289 285.317 337.94 286.243 337.84 287.212C337.74 288.181 337.891 289.159 338.279 290.052C338.667 290.945 339.279 291.723 340.056 292.311C340.833 292.899 341.748 293.276 342.714 293.406C343.679 293.537 344.661 293.416 345.566 293.056C346.472 292.696 347.268 292.109 347.88 291.351C348.491 290.593 348.897 289.69 349.058 288.729Z" fill="#FFB8B8"/>
<path id="Vector_18" d="M369.347 235.305L384.376 239.652L384.432 239.641C389.956 238.568 394.326 229.389 397.019 221.878C397.905 219.4 397.817 216.678 396.773 214.263C395.729 211.848 393.806 209.919 391.394 208.867C389.61 208.103 387.647 207.853 385.728 208.145C383.809 208.438 382.01 209.261 380.535 210.523L373.041 216.974L369.347 235.305Z" fill="#2C65A5"/>
<path id="Vector_19" d="M356.488 428.295L348.406 428.294L344.561 397.123L356.49 397.124L356.488 428.295Z" fill="#FFB8B8"/>
<path id="Vector_20" d="M358.55 425.656L356.275 425.656L347.393 422.044L342.633 425.655H342.632C339.942 425.656 337.362 426.724 335.46 428.626C333.557 430.528 332.489 433.108 332.488 435.798V436.127L358.55 436.128L358.55 425.656Z" fill="#2F2E41"/>
<path id="Vector_21" d="M392.352 428.295L384.269 428.294L380.425 397.123L392.354 397.124L392.352 428.295Z" fill="#FFB8B8"/>
<path id="Vector_22" d="M394.414 425.656L392.139 425.656L383.257 422.044L378.496 425.655H378.496C375.806 425.656 373.226 426.724 371.323 428.626C369.421 430.528 368.352 433.108 368.352 435.798V436.127L394.413 436.128L394.414 425.656Z" fill="#2F2E41"/>
<path id="Vector_23" d="M404.676 294.03C404.676 294.03 405.62 305.354 403.261 316.205C400.901 327.057 400.901 357.62 400.901 357.62L395.71 417.176L380.138 415.76L375.891 316.206L360.791 349.705L362.206 354.423L360.321 355.603C360.321 355.603 361.734 364.803 360.791 364.803C359.847 364.803 357.487 366.219 357.487 366.219L359.375 414.816L343.331 414.345L337.668 345.93L343.803 306.769L344.275 299.22L346.398 299.307L347.479 296.153L349.465 290.727L404.676 294.03Z" fill="#2F2E41"/>
<path id="Vector_24" d="M405.492 296.408L405.576 296.29C410.068 290.003 403.312 274.894 402.293 272.703L406.585 271.311L405.618 263.098L405.161 259.436L408.441 256.157L408.45 256.075L410.337 239.561L413.082 228.593C414.116 224.446 414.028 220.099 412.826 215.998C411.625 211.897 409.354 208.19 406.246 205.256L399.902 199.276L392.193 187.87H379.76L375.497 195.921C371.364 196.876 367.697 199.25 365.135 202.63C362.573 206.011 361.278 210.183 361.476 214.419L362.442 235.535L358.66 261.825L358.658 266.583L354.401 271.312L355.331 275.959L352.092 277.347L350.661 284.021C350.069 284.802 346.162 290.011 346.162 291.435C346.162 291.649 346.32 291.855 346.659 292.084C349.321 293.887 364.038 297.563 370.552 294.956C377.49 292.183 405.071 296.344 405.349 296.386L405.492 296.408Z" fill="#1E62AD"/>
<path id="Vector_25" d="M384.37 184.188C393.464 184.188 400.836 176.817 400.836 167.724C400.836 158.632 393.464 151.261 384.37 151.261C375.277 151.261 367.905 158.632 367.905 167.724C367.905 176.817 375.277 184.188 384.37 184.188Z" fill="#FFB8B8"/>
<path id="Vector_26" d="M382.793 184.454C385.343 184.428 387.886 184.184 390.395 183.726C392.878 183.154 398.357 178.917 399.85 176.415C400.96 174.555 401.626 171.679 401.989 169.594C402.48 166.834 402.385 164.002 401.712 161.282C401.038 158.561 399.801 156.012 398.079 153.8C397.415 152.873 396.514 152.143 395.469 151.687C395.377 151.653 395.282 151.624 395.186 151.599C393.672 151.242 392.299 150.441 391.244 149.299C391.039 149.067 390.817 148.851 390.581 148.651C389.397 147.704 388.006 147.049 386.521 146.742C384.121 146.166 380.689 146.888 376.319 148.89C374.123 149.896 371.687 149.615 369.809 149.259C369.703 149.241 369.595 149.251 369.495 149.289C369.395 149.326 369.307 149.388 369.238 149.47C368.463 150.237 367.426 150.681 366.336 150.715C365.67 150.761 364.993 151.704 364.178 152.931C363.993 153.209 363.777 153.534 363.62 153.733L363.589 153.36L363.222 153.786C362.645 154.455 362.247 155.26 362.065 156.125C361.883 156.989 361.923 157.886 362.181 158.731C362.439 159.576 362.907 160.342 363.54 160.958C364.174 161.574 364.953 162.019 365.806 162.253C366.482 162.414 367.173 162.506 367.867 162.527C368.289 162.554 368.724 162.582 369.143 162.643C370.487 162.882 371.746 163.466 372.797 164.337C373.848 165.208 374.655 166.337 375.14 167.613C375.254 167.908 375.435 168.172 375.668 168.386C375.901 168.6 376.18 168.758 376.484 168.847C376.787 168.936 377.107 168.954 377.419 168.9C377.73 168.846 378.026 168.72 378.281 168.534C378.706 168.185 379.21 167.944 379.748 167.832C380.287 167.719 380.845 167.738 381.374 167.888C381.834 168.129 382.198 168.52 382.404 168.997C382.653 169.528 383.054 169.973 383.557 170.274C385.272 171.103 385.488 174.963 384.963 178.2C384.458 181.319 383.358 183.595 382.289 183.734C381.466 183.84 381.373 183.901 381.317 184.049L381.267 184.181L381.363 184.301C381.823 184.454 382.311 184.506 382.793 184.454Z" fill="#2F2E41"/>
<path id="Vector_27" d="M369.132 237.066L361.218 226.982C353.156 229.202 338.851 241.951 338.851 241.951L309.474 254.697C308.493 254.533 307.487 254.629 306.555 254.977C305.624 255.325 304.801 255.912 304.168 256.679C303.536 257.446 303.117 258.366 302.953 259.347C302.79 260.328 302.888 261.334 303.237 262.265C303.586 263.196 304.174 264.018 304.942 264.649C305.71 265.281 306.631 265.699 307.612 265.861C308.592 266.023 309.599 265.924 310.529 265.574C311.46 265.224 312.282 264.635 312.912 263.867L351.396 253.132L369.132 237.066Z" fill="#FFB8B8"/>
<path id="Vector_28" d="M367.235 239.371L379.723 225.451L380.417 215.589C380.546 213.652 380.13 211.718 379.218 210.005C378.305 208.291 376.931 206.868 375.252 205.894C372.966 204.59 370.271 204.202 367.71 204.809C365.149 205.416 362.915 206.972 361.458 209.164C357.046 215.813 352.299 224.803 354.741 229.872L354.766 229.923L367.235 239.371Z" fill="#1E62AD"/>
<path id="Vector_29" d="M252.134 291.688L219.677 275.068C217.368 273.886 216.604 270.75 217.972 268.078L239.135 226.762C240.504 224.09 243.496 222.878 245.804 224.06L278.261 240.68C280.57 241.863 281.335 244.998 279.966 247.671L258.803 288.986C257.435 291.658 254.443 292.871 252.134 291.688Z" fill="#E6E6E6"/>
<path id="Vector_30" d="M246.588 284.048L224.537 272.756C222.374 271.648 221.658 268.712 222.94 266.209L240.522 231.885C241.803 229.382 244.605 228.247 246.768 229.354L273.402 242.993C275.564 244.1 276.28 247.037 274.998 249.539L265.447 268.186C259.737 279.333 256.22 288.98 246.588 284.048Z" fill="white"/>
<path id="Vector_31" d="M257.491 265.303L237.959 255.301C237.721 255.131 237.551 254.881 237.482 254.596C237.412 254.311 237.447 254.011 237.581 253.75C237.715 253.489 237.938 253.285 238.21 253.175C238.481 253.064 238.784 253.056 239.061 253.15L258.593 263.152C258.832 263.322 259.002 263.572 259.071 263.857C259.141 264.142 259.105 264.443 258.972 264.703C258.838 264.964 258.615 265.169 258.343 265.279C258.071 265.389 257.769 265.398 257.491 265.303Z" fill="#2C65A5"/>
<path id="Vector_32" d="M240.24 261.834L235.782 259.552C235.544 259.381 235.374 259.131 235.304 258.846C235.235 258.561 235.27 258.261 235.404 258C235.538 257.739 235.761 257.535 236.033 257.425C236.304 257.315 236.607 257.306 236.884 257.4L241.342 259.683C241.581 259.853 241.75 260.103 241.82 260.388C241.889 260.673 241.854 260.973 241.72 261.234C241.586 261.495 241.363 261.7 241.092 261.81C240.82 261.92 240.517 261.928 240.24 261.834Z" fill="#2C65A5"/>
<path id="Vector_33" d="M245.957 270.127L233.605 263.802C233.366 263.632 233.197 263.381 233.127 263.097C233.058 262.812 233.093 262.511 233.227 262.25C233.361 261.989 233.584 261.785 233.855 261.675C234.127 261.565 234.43 261.556 234.707 261.651L247.059 267.976C247.298 268.146 247.468 268.396 247.537 268.681C247.607 268.966 247.571 269.266 247.438 269.527C247.304 269.788 247.081 269.992 246.809 270.103C246.537 270.213 246.235 270.221 245.957 270.127V270.127Z" fill="#2C65A5"/>
<path id="Vector_34" d="M265.221 250.213L245.689 240.212C245.45 240.041 245.28 239.791 245.211 239.506C245.141 239.221 245.177 238.921 245.31 238.66C245.444 238.399 245.667 238.195 245.939 238.085C246.211 237.975 246.513 237.966 246.791 238.06L266.323 248.062C266.561 248.232 266.731 248.483 266.8 248.767C266.87 249.052 266.835 249.353 266.701 249.614C266.567 249.875 266.344 250.079 266.072 250.189C265.801 250.299 265.498 250.308 265.221 250.213Z" fill="#2C65A5"/>
<path id="Vector_35" d="M247.969 246.744L243.512 244.462C243.273 244.292 243.103 244.041 243.034 243.756C242.964 243.472 243 243.171 243.133 242.91C243.267 242.649 243.49 242.445 243.762 242.335C244.034 242.225 244.336 242.216 244.614 242.311L249.071 244.593C249.31 244.763 249.479 245.014 249.549 245.298C249.618 245.583 249.583 245.884 249.449 246.145C249.316 246.406 249.093 246.61 248.821 246.72C248.549 246.83 248.247 246.839 247.969 246.744Z" fill="#2C65A5"/>
<path id="Vector_36" d="M253.687 255.037L241.335 248.712C241.096 248.542 240.926 248.292 240.857 248.007C240.787 247.722 240.823 247.421 240.956 247.161C241.09 246.9 241.313 246.695 241.585 246.585C241.857 246.475 242.159 246.466 242.437 246.561L254.788 252.886C255.027 253.056 255.197 253.306 255.266 253.591C255.336 253.876 255.301 254.177 255.167 254.437C255.033 254.698 254.81 254.903 254.538 255.013C254.267 255.123 253.964 255.132 253.687 255.037L253.687 255.037Z" fill="#2C65A5"/>
<path id="Vector_37" d="M225.238 255.719L217.906 228.425L237.5 224.716L236.446 243.451L262.192 269.956C263.555 269.901 264.905 270.243 266.077 270.941C267.249 271.639 268.192 272.663 268.792 273.888C269.392 275.112 269.623 276.485 269.456 277.839C269.289 279.193 268.731 280.469 267.852 281.511C266.972 282.554 265.808 283.318 264.502 283.71C263.195 284.103 261.803 284.107 260.494 283.722C259.186 283.336 258.018 282.579 257.132 281.541C256.246 280.504 255.682 279.231 255.507 277.879L225.238 255.719Z" fill="#A0616A"/>
<path id="Vector_38" d="M215.901 197.823C209.25 203.073 217.786 232.439 217.786 232.439C219.108 230.989 220.644 252.423 222.259 251.693C226.851 249.619 235.266 242.466 238.511 243.049C240.366 243.382 238.422 228.871 238.422 228.871C238.422 228.871 238.065 220.551 237.393 209.855C237.259 206.827 236.361 203.883 234.783 201.296C233.205 198.708 230.998 196.562 228.367 195.058C228.367 195.058 222.552 192.573 215.901 197.823Z" fill="#3F3D56"/>
<path id="Vector_39" d="M326.568 316.3L308.856 307.937C308.478 307.759 308.144 307.498 307.881 307.173C307.617 306.848 307.431 306.467 307.336 306.06C307.24 305.661 307.235 305.246 307.323 304.846C307.41 304.445 307.587 304.07 307.84 303.747C312.971 297.191 316.494 289.524 318.126 281.361C318.25 280.736 318.586 280.173 319.078 279.768C319.57 279.364 320.188 279.142 320.825 279.141C329.858 279.172 336.609 282.47 340.89 288.942C341.116 289.279 341.265 289.661 341.328 290.061C341.391 290.461 341.366 290.871 341.255 291.26C338.776 299.803 335.004 307.916 330.07 315.317C329.704 315.876 329.147 316.284 328.503 316.465C327.86 316.646 327.172 316.587 326.568 316.3Z" fill="#E6E6E6"/>
<path id="Vector_40" d="M331.778 304.571L318.236 298.177C317.899 298.018 317.639 297.731 317.513 297.381C317.387 297.03 317.406 296.644 317.565 296.307C317.724 295.97 318.011 295.71 318.362 295.584C318.712 295.459 319.099 295.477 319.435 295.637L332.978 302.031C333.145 302.109 333.295 302.22 333.419 302.357C333.543 302.493 333.638 302.653 333.701 302.827C333.763 303 333.79 303.185 333.781 303.369C333.772 303.553 333.727 303.734 333.649 303.901C333.57 304.067 333.459 304.217 333.322 304.341C333.186 304.465 333.026 304.561 332.852 304.623C332.679 304.685 332.494 304.713 332.31 304.704C332.126 304.695 331.945 304.65 331.778 304.571H331.778Z" fill="white"/>
<path id="Vector_41" d="M333.882 300.116L320.34 293.722C320.003 293.563 319.743 293.277 319.617 292.926C319.491 292.576 319.51 292.189 319.669 291.852C319.828 291.515 320.115 291.256 320.465 291.13C320.816 291.004 321.202 291.023 321.539 291.182L335.082 297.576C335.419 297.735 335.679 298.021 335.804 298.372C335.93 298.723 335.911 299.109 335.752 299.446C335.593 299.783 335.307 300.043 334.956 300.168C334.605 300.294 334.219 300.275 333.882 300.116V300.116Z" fill="white"/>
<path id="Vector_42" d="M315.786 160.279L314.526 160.417C308.905 138.333 298.01 123.033 283.018 116.172C263.96 107.45 240.394 113.307 216.66 132.664C192.806 152.121 171.689 182.854 157.199 219.203L155.976 218.644C170.529 182.136 191.755 151.254 215.743 131.689C239.851 112.026 263.898 106.126 283.455 115.076C298.877 122.134 310.057 137.765 315.786 160.279Z" fill="#F2F2F2"/>
<path id="Vector_43" d="M176.708 189.041C173.411 195.985 170.276 203.179 167.388 210.423C150.771 252.109 142.35 294.681 143.038 333.54L141.739 333.401C141.05 294.398 149.496 251.679 166.165 209.863C169.061 202.599 172.205 195.385 175.511 188.421L176.708 189.041Z" fill="#F2F2F2"/>
<path id="Vector_44" d="M176.085 217.684C172.788 224.628 169.652 231.822 166.764 239.066C150.147 280.752 141.726 323.324 142.415 362.183L141.116 362.044C140.427 323.041 148.872 280.322 165.541 238.506C168.437 231.242 171.582 224.028 174.888 217.064L176.085 217.684Z" fill="#F2F2F2"/>
</g>
</g>
<defs>
<clipPath id="clip0_72_163">
<rect width="402" height="326" fill="white" transform="translate(113 111)"/>
</clipPath>
</defs>
</svg>
