<svg width="402" height="326" viewBox="0 0 402 326" fill="none" xmlns="http://www.w3.org/2000/svg">
<g clip-path="url(#clip0_5_130)">
<path d="M320.927 59.3817C318.838 82.3874 312.889 106.646 303.559 130.052C292.021 158.996 276.256 184.49 257.97 203.778L256.955 202.893C275.153 183.698 290.846 158.317 302.336 129.492C312.72 103.443 318.896 76.3361 320.205 51.1123L321.502 51.3294C321.364 53.9933 321.173 56.6774 320.927 59.3817Z" fill="#F2F2F2"/>
<path d="M329.244 192.994C303.56 233.85 272.399 263.042 241.502 275.192L240.877 274.046C271.56 261.981 302.538 232.938 328.105 192.269L329.244 192.994Z" fill="#F2F2F2"/>
<path d="M320.303 88.0247C318.215 111.03 312.266 135.289 302.935 158.695C291.397 187.639 275.633 213.133 257.347 232.421L256.332 231.536C274.53 212.341 290.222 186.96 301.712 158.135C312.096 132.086 318.273 104.979 319.582 79.7552L320.879 79.9723C320.741 82.6363 320.549 85.3204 320.303 88.0247Z" fill="#F2F2F2"/>
<path d="M196.231 123.943C201.791 123.943 206.299 119.436 206.299 113.877C206.299 108.317 201.791 103.81 196.231 103.81C190.671 103.81 186.164 108.317 186.164 113.877C186.164 119.436 190.671 123.943 196.231 123.943Z" fill="#1E62AD"/>
<path d="M201.399 109.681C201.248 109.537 201.047 109.456 200.837 109.456C200.628 109.456 200.427 109.537 200.275 109.681C198.139 111.385 196.22 113.344 194.562 115.516C194.155 114.728 193.748 113.941 193.341 113.153C192.871 112.244 191.499 113.047 191.968 113.956C192.564 115.107 193.159 116.259 193.755 117.411C193.826 117.529 193.927 117.626 194.047 117.693C194.168 117.761 194.303 117.796 194.441 117.796C194.579 117.796 194.714 117.761 194.834 117.693C194.955 117.626 195.055 117.529 195.127 117.411C196.894 114.923 199.006 112.699 201.399 110.805C201.547 110.655 201.63 110.454 201.63 110.243C201.63 110.033 201.547 109.831 201.399 109.681Z" fill="white"/>
<path d="M151.184 142.421L136.002 118.582L153.582 109.168L158.196 127.356L190.707 144.922C191.99 144.46 193.381 144.381 194.708 144.696C196.035 145.01 197.242 145.704 198.182 146.693C199.122 147.681 199.754 148.922 200.001 150.263C200.247 151.605 200.099 152.989 199.572 154.247C199.046 155.505 198.164 156.583 197.036 157.35C195.907 158.116 194.58 158.537 193.216 158.562C191.852 158.587 190.511 158.215 189.355 157.491C188.199 156.766 187.279 155.722 186.706 154.484L151.184 142.421Z" fill="#A0616A"/>
<path d="M124.91 89.9897C120.14 96.9924 137.092 122.447 137.092 122.447C137.918 120.667 145.812 140.654 147.134 139.473C150.892 136.118 156.775 126.77 160.045 126.354C161.915 126.116 155.708 112.855 155.708 112.855C155.708 112.855 152.871 105.025 149.022 95.0229C147.986 92.1749 146.246 89.6353 143.965 87.6404C141.683 85.6455 138.934 84.2602 135.973 83.6134C135.973 83.6134 129.68 82.987 124.91 89.9897Z" fill="#3F3D56"/>
<path d="M125.143 318.14L132.353 318.14L135.783 290.333L125.142 290.334L125.143 318.14Z" fill="#A0616A"/>
<path d="M123.304 315.786L125.333 315.786L133.256 312.565L137.503 315.786H137.504C139.903 315.786 142.205 316.739 143.902 318.436C145.599 320.133 146.552 322.434 146.552 324.833V325.127L123.304 325.128L123.304 315.786Z" fill="#2F2E41"/>
<path d="M158.64 318.14L165.85 318.14L169.28 290.333L158.639 290.334L158.64 318.14Z" fill="#A0616A"/>
<path d="M156.801 315.786L158.83 315.786L166.753 312.565L171 315.786H171C173.4 315.786 175.702 316.739 177.399 318.436C179.096 320.133 180.049 322.434 180.049 324.833V325.127L156.801 325.128L156.801 315.786Z" fill="#2F2E41"/>
<path d="M161.761 166.12L114.863 167.292C105.956 172.129 105.821 182.598 108.739 195.028C108.739 195.028 107.754 202.416 109.724 204.386C111.695 206.357 112.68 206.357 111.695 209.804C110.71 213.252 115.915 218.883 115.283 219.515C114.65 220.147 113.173 223.595 113.173 223.595L118.099 251.669C118.099 251.669 121.547 300.43 122.532 301.415C123.517 302.4 124.502 301.415 123.517 303.878C122.532 306.34 121.547 305.355 122.532 306.34C123.405 307.281 124.227 308.268 124.995 309.296H136.905C136.905 309.296 137.803 304.37 137.803 303.878C137.803 303.385 138.788 300.43 138.788 299.938C138.788 299.445 137.917 298.574 137.917 298.574C137.616 297.573 137.413 296.545 137.31 295.505C137.31 294.52 134.354 256.595 134.354 256.595L140.266 207.342L154.551 255.61C154.551 255.61 154.551 297.967 155.536 298.953C156.521 299.938 156.521 299.445 156.029 301.415C155.536 303.385 153.566 302.893 155.044 304.37C156.521 305.848 157.014 303.385 156.521 305.848L156.029 308.311L170.807 308.522C170.807 308.522 172.777 304.37 171.792 302.893C170.807 301.415 170.866 301.819 172.068 299.4C173.27 296.982 173.763 296.49 173.27 295.997C172.777 295.505 172.777 292.885 172.777 292.885L170.314 245.759C170.314 245.759 169.822 196.013 169.822 194.536C169.785 193.775 169.925 193.017 170.231 192.32V190.314L168.344 183.208L161.761 166.12Z" fill="#2F2E41"/>
<path d="M133.589 68.617C141.636 68.617 148.16 62.094 148.16 54.0476C148.16 46.0012 141.636 39.4783 133.589 39.4783C125.541 39.4783 119.017 46.0012 119.017 54.0476C119.017 62.094 125.541 68.617 133.589 68.617Z" fill="#A0616A"/>
<path d="M140.874 78.2464C144.013 80.1124 145.891 83.541 146.969 87.0298C148.965 93.489 150.166 100.167 150.547 106.917L151.685 127.124L165.787 170.151C153.565 180.491 107.628 172.501 107.628 172.501C107.628 172.501 106.218 172.031 107.628 170.621C109.038 169.211 110.411 170.46 109.001 169.051C107.591 167.641 108.563 169.211 109.033 167.801C109.503 166.391 109.033 167.331 108.563 166.861C108.093 166.391 112.201 162.162 112.201 162.162L108.441 137.464L103.741 87.646C109.381 80.5963 120.725 76.4405 120.725 76.4405L123.656 71.1653L138.312 72.3376L140.874 78.2464Z" fill="#3F3D56"/>
<path d="M145.6 46.3072C146.733 47.1517 147.572 48.3302 147.999 49.6766C148.164 47.4763 148.174 45.2672 148.031 43.0654C147.859 41.5182 146.769 41.1702 145.508 40.7669C144.369 40.4026 143.08 39.991 142.734 38.489C138.153 34.0337 130.18 34.2584 124.723 35.8125C121.72 36.6676 119.992 37.7664 119.838 38.41L119.806 38.5426L119.684 38.6035C117.369 39.7606 116.919 43.4145 116.948 46.276C117.005 51.6671 118.867 57.7901 119.915 58.2875C119.971 58.3139 119.985 58.3036 120.009 58.2835C121.588 57.0217 123.515 58.3794 124.362 59.1175C124.861 55.7668 126.469 52.6801 128.929 50.3503C131.388 48.0206 134.558 46.5822 137.931 46.2648C139.033 46.1584 140.126 45.9752 141.202 45.7165C141.748 45.5753 142.309 45.5017 142.873 45.4973C143.843 45.4825 144.795 45.7652 145.6 46.3072Z" fill="#2F2E41"/>
<path d="M236.058 177.729L264.088 149.269L271.473 126.507L259.589 121.701C253.702 127.638 247.641 145.815 247.641 145.815L228.51 171.488C228.357 171.545 228.205 171.605 228.055 171.676C227.174 172.092 226.415 172.728 225.852 173.522C225.289 174.317 224.94 175.243 224.84 176.212C224.74 177.181 224.891 178.159 225.279 179.052C225.667 179.945 226.279 180.723 227.056 181.311C227.833 181.899 228.748 182.276 229.714 182.406C230.679 182.537 231.661 182.416 232.566 182.056C233.472 181.696 234.268 181.109 234.88 180.351C235.491 179.593 235.897 178.69 236.058 177.729Z" fill="#FFB8B8"/>
<path d="M256.347 124.305L271.376 128.652L271.432 128.641C276.956 127.568 281.326 118.389 284.019 110.878C284.905 108.4 284.817 105.678 283.773 103.263C282.729 100.848 280.806 98.9193 278.394 97.8669C276.61 97.1027 274.647 96.8527 272.728 97.1453C270.809 97.4379 269.01 98.2613 267.535 99.5227L260.041 105.974L256.347 124.305Z" fill="#2C65A5"/>
<path d="M243.488 317.295L235.406 317.294L231.561 286.123L243.49 286.124L243.488 317.295Z" fill="#FFB8B8"/>
<path d="M245.55 314.656L243.275 314.656L234.393 311.044L229.633 314.655H229.632C226.942 314.656 224.362 315.724 222.46 317.626C220.557 319.528 219.489 322.108 219.488 324.798V325.127L245.55 325.128L245.55 314.656Z" fill="#2F2E41"/>
<path d="M279.352 317.295L271.269 317.294L267.425 286.123L279.354 286.124L279.352 317.295Z" fill="#FFB8B8"/>
<path d="M281.414 314.656L279.139 314.656L270.257 311.044L265.496 314.655H265.496C262.806 314.656 260.226 315.724 258.323 317.626C256.421 319.528 255.352 322.108 255.352 324.798V325.127L281.413 325.128L281.414 314.656Z" fill="#2F2E41"/>
<path d="M291.676 183.03C291.676 183.03 292.62 194.354 290.261 205.205C287.901 216.057 287.901 246.62 287.901 246.62L282.71 306.176L267.138 304.76L262.891 205.206L247.791 238.705L249.206 243.423L247.321 244.603C247.321 244.603 248.734 253.803 247.791 253.803C246.847 253.803 244.487 255.219 244.487 255.219L246.375 303.816L230.331 303.345L224.668 234.93L230.803 195.769L231.275 188.22L233.398 188.307L234.479 185.153L236.465 179.727L291.676 183.03Z" fill="#2F2E41"/>
<path d="M292.492 185.408L292.576 185.29C297.068 179.003 290.312 163.894 289.293 161.703L293.585 160.311L292.618 152.098L292.161 148.436L295.441 145.157L295.45 145.075L297.337 128.561L300.082 117.593C301.116 113.446 301.028 109.099 299.826 104.998C298.625 100.897 296.354 97.1896 293.246 94.2561L286.902 88.2756L279.193 76.8696H266.76L262.497 84.9206C258.364 85.8756 254.697 88.2502 252.135 91.6305C249.573 95.0108 248.278 99.1826 248.476 103.419L249.442 124.535L245.66 150.825L245.658 155.583L241.401 160.312L242.331 164.959L239.092 166.347L237.661 173.021C237.069 173.802 233.162 179.011 233.162 180.435C233.162 180.649 233.32 180.855 233.659 181.084C236.321 182.887 251.038 186.563 257.552 183.956C264.49 181.183 292.071 185.344 292.349 185.386L292.492 185.408Z" fill="#1E62AD"/>
<path d="M271.37 73.1876C280.464 73.1876 287.836 65.8168 287.836 56.7244C287.836 47.632 280.464 40.2611 271.37 40.2611C262.277 40.2611 254.905 47.632 254.905 56.7244C254.905 65.8168 262.277 73.1876 271.37 73.1876Z" fill="#FFB8B8"/>
<path d="M269.793 73.4543C272.343 73.4282 274.886 73.1844 277.395 72.7256C279.878 72.1535 285.357 67.9173 286.85 65.4146C287.96 63.5552 288.626 60.6791 288.989 58.5939C289.48 55.8343 289.385 53.0024 288.712 50.2817C288.038 47.5609 286.801 45.012 285.079 42.7998C284.415 41.8731 283.514 41.1429 282.469 40.6865C282.377 40.6531 282.282 40.6239 282.186 40.5992C280.672 40.2424 279.299 39.4413 278.244 38.2986C278.039 38.0673 277.817 37.851 277.581 37.6515C276.397 36.7036 275.006 36.0494 273.521 35.7423C271.121 35.1661 267.689 35.8881 263.319 37.8901C261.123 38.896 258.687 38.6154 256.809 38.2585C256.703 38.241 256.595 38.2513 256.495 38.2885C256.395 38.3257 256.307 38.3884 256.238 38.4705C255.463 39.2369 254.426 39.6814 253.336 39.7148C252.67 39.7613 251.993 40.7036 251.178 41.9306C250.993 42.2091 250.777 42.5342 250.62 42.7326L250.589 42.36L250.222 42.786C249.645 43.4555 249.247 44.26 249.065 45.1246C248.883 45.9892 248.923 46.8858 249.181 47.7309C249.439 48.576 249.907 49.3421 250.54 49.9578C251.174 50.5736 251.953 51.019 252.806 51.2525C253.482 51.4138 254.173 51.5057 254.867 51.5267C255.289 51.5536 255.724 51.5815 256.143 51.643C257.487 51.8823 258.746 52.4659 259.797 53.3369C260.848 54.2079 261.655 55.3365 262.14 56.6126C262.254 56.9075 262.435 57.1722 262.668 57.3862C262.901 57.6002 263.18 57.7578 263.484 57.8468C263.787 57.9359 264.107 57.954 264.419 57.8998C264.73 57.8456 265.026 57.7205 265.281 57.5341C265.706 57.1851 266.21 56.944 266.748 56.8315C267.287 56.7191 267.845 56.7385 268.374 56.8882C268.834 57.1288 269.198 57.5203 269.404 57.9972C269.653 58.528 270.054 58.9725 270.557 59.2742C272.272 60.1027 272.488 63.9632 271.963 67.1996C271.458 70.3192 270.358 72.5949 269.289 72.7336C268.466 72.8403 268.373 72.9013 268.317 73.0488L268.267 73.1808L268.363 73.3006C268.823 73.454 269.311 73.5065 269.793 73.4543Z" fill="#2F2E41"/>
<path d="M256.132 126.066L248.218 115.982C240.156 118.202 225.851 130.951 225.851 130.951L196.474 143.697C195.493 143.533 194.487 143.629 193.555 143.977C192.624 144.325 191.801 144.912 191.168 145.679C190.536 146.446 190.117 147.366 189.953 148.347C189.79 149.328 189.888 150.334 190.237 151.265C190.586 152.196 191.174 153.018 191.942 153.649C192.71 154.281 193.631 154.699 194.612 154.861C195.592 155.023 196.599 154.924 197.529 154.574C198.46 154.224 199.282 153.635 199.912 152.867L238.396 142.132L256.132 126.066Z" fill="#FFB8B8"/>
<path d="M254.235 128.371L266.723 114.451L267.417 104.589C267.546 102.652 267.13 100.718 266.218 99.0045C265.305 97.2914 263.931 95.8677 262.252 94.8942C259.966 93.5899 257.271 93.202 254.71 93.8089C252.149 94.4158 249.915 95.9723 248.458 98.1636C244.046 104.813 239.299 113.803 241.741 118.872L241.766 118.923L254.235 128.371Z" fill="#1E62AD"/>
<path d="M139.134 180.688L106.677 164.068C104.368 162.886 103.604 159.75 104.972 157.078L126.135 115.762C127.504 113.09 130.496 111.878 132.804 113.06L165.261 129.68C167.57 130.863 168.335 133.998 166.966 136.671L145.803 177.986C144.435 180.658 141.443 181.871 139.134 180.688Z" fill="#E6E6E6"/>
<path d="M133.588 173.048L111.537 161.756C109.374 160.648 108.658 157.712 109.94 155.209L127.522 120.885C128.803 118.382 131.605 117.247 133.768 118.354L160.402 131.993C162.564 133.1 163.28 136.037 161.998 138.539L152.447 157.186C146.737 168.333 143.22 177.98 133.588 173.048Z" fill="white"/>
<path d="M144.491 154.303L124.959 144.301C124.721 144.131 124.551 143.881 124.482 143.596C124.412 143.311 124.447 143.011 124.581 142.75C124.715 142.489 124.938 142.285 125.21 142.175C125.481 142.064 125.784 142.056 126.061 142.15L145.593 152.152C145.832 152.322 146.002 152.572 146.071 152.857C146.141 153.142 146.105 153.443 145.972 153.703C145.838 153.964 145.615 154.169 145.343 154.279C145.071 154.389 144.769 154.398 144.491 154.303Z" fill="#2C65A5"/>
<path d="M127.24 150.834L122.782 148.552C122.544 148.381 122.374 148.131 122.304 147.846C122.235 147.561 122.27 147.261 122.404 147C122.538 146.739 122.761 146.535 123.033 146.425C123.304 146.315 123.607 146.306 123.884 146.4L128.342 148.683C128.581 148.853 128.75 149.103 128.82 149.388C128.889 149.673 128.854 149.973 128.72 150.234C128.586 150.495 128.363 150.7 128.092 150.81C127.82 150.92 127.517 150.928 127.24 150.834Z" fill="#2C65A5"/>
<path d="M132.957 159.127L120.605 152.802C120.366 152.632 120.197 152.381 120.127 152.097C120.058 151.812 120.093 151.511 120.227 151.25C120.361 150.989 120.584 150.785 120.855 150.675C121.127 150.565 121.43 150.556 121.707 150.651L134.059 156.976C134.298 157.146 134.468 157.396 134.537 157.681C134.607 157.966 134.571 158.266 134.438 158.527C134.304 158.788 134.081 158.992 133.809 159.103C133.537 159.213 133.235 159.221 132.957 159.127V159.127Z" fill="#2C65A5"/>
<path d="M152.221 139.213L132.689 129.212C132.45 129.041 132.28 128.791 132.211 128.506C132.141 128.221 132.177 127.921 132.31 127.66C132.444 127.399 132.667 127.195 132.939 127.085C133.211 126.975 133.513 126.966 133.791 127.06L153.323 137.062C153.561 137.232 153.731 137.483 153.8 137.767C153.87 138.052 153.835 138.353 153.701 138.614C153.567 138.875 153.344 139.079 153.072 139.189C152.801 139.299 152.498 139.308 152.221 139.213Z" fill="#2C65A5"/>
<path d="M134.969 135.744L130.512 133.462C130.273 133.292 130.103 133.041 130.034 132.756C129.964 132.472 130 132.171 130.133 131.91C130.267 131.649 130.49 131.445 130.762 131.335C131.034 131.225 131.336 131.216 131.614 131.311L136.071 133.593C136.31 133.763 136.479 134.014 136.549 134.298C136.618 134.583 136.583 134.884 136.449 135.145C136.316 135.406 136.093 135.61 135.821 135.72C135.549 135.83 135.247 135.839 134.969 135.744Z" fill="#2C65A5"/>
<path d="M140.687 144.037L128.335 137.712C128.096 137.542 127.926 137.292 127.857 137.007C127.787 136.722 127.823 136.421 127.956 136.161C128.09 135.9 128.313 135.695 128.585 135.585C128.857 135.475 129.159 135.466 129.437 135.561L141.788 141.886C142.027 142.056 142.197 142.306 142.266 142.591C142.336 142.876 142.301 143.177 142.167 143.437C142.033 143.698 141.81 143.903 141.538 144.013C141.267 144.123 140.964 144.132 140.687 144.037L140.687 144.037Z" fill="#2C65A5"/>
<path d="M112.238 144.719L104.906 117.425L124.5 113.716L123.446 132.451L149.192 158.956C150.555 158.901 151.905 159.243 153.077 159.941C154.249 160.639 155.192 161.663 155.792 162.888C156.392 164.112 156.623 165.485 156.456 166.839C156.289 168.193 155.731 169.469 154.852 170.511C153.972 171.554 152.808 172.318 151.502 172.71C150.195 173.103 148.803 173.107 147.494 172.722C146.186 172.336 145.018 171.579 144.132 170.541C143.246 169.504 142.682 168.231 142.507 166.879L112.238 144.719Z" fill="#A0616A"/>
<path d="M102.901 86.8229C96.2496 92.0729 104.786 121.439 104.786 121.439C106.108 119.989 107.644 141.423 109.259 140.693C113.851 138.619 122.266 131.466 125.511 132.049C127.366 132.382 125.422 117.871 125.422 117.871C125.422 117.871 125.065 109.551 124.393 98.8547C124.259 95.8272 123.361 92.8828 121.783 90.2956C120.205 87.7084 117.998 85.5625 115.367 84.0576C115.367 84.0576 109.552 81.573 102.901 86.8229Z" fill="#3F3D56"/>
<path d="M213.568 205.3L195.856 196.937C195.478 196.759 195.144 196.498 194.881 196.173C194.617 195.848 194.431 195.467 194.336 195.06C194.24 194.661 194.235 194.246 194.323 193.846C194.41 193.445 194.587 193.07 194.84 192.747C199.971 186.191 203.494 178.524 205.126 170.361C205.25 169.736 205.586 169.173 206.078 168.768C206.57 168.364 207.188 168.142 207.825 168.141C216.858 168.172 223.609 171.47 227.89 177.942C228.116 178.279 228.265 178.661 228.328 179.061C228.391 179.461 228.366 179.871 228.255 180.26C225.776 188.803 222.004 196.916 217.07 204.317C216.704 204.876 216.147 205.284 215.503 205.465C214.86 205.646 214.172 205.587 213.568 205.3Z" fill="#E6E6E6"/>
<path d="M218.778 193.571L205.236 187.177C204.899 187.018 204.639 186.731 204.513 186.381C204.387 186.03 204.406 185.644 204.565 185.307C204.724 184.97 205.011 184.71 205.362 184.584C205.712 184.459 206.099 184.477 206.435 184.637L219.978 191.031C220.145 191.109 220.295 191.22 220.419 191.357C220.543 191.493 220.638 191.653 220.701 191.827C220.763 192 220.79 192.185 220.781 192.369C220.772 192.553 220.727 192.734 220.649 192.901C220.57 193.067 220.459 193.217 220.322 193.341C220.186 193.465 220.026 193.561 219.852 193.623C219.679 193.685 219.494 193.713 219.31 193.704C219.126 193.695 218.945 193.65 218.778 193.571H218.778Z" fill="white"/>
<path d="M220.882 189.116L207.34 182.722C207.003 182.563 206.743 182.277 206.617 181.926C206.491 181.576 206.51 181.189 206.669 180.852C206.828 180.515 207.115 180.256 207.465 180.13C207.816 180.004 208.202 180.023 208.539 180.182L222.082 186.576C222.419 186.735 222.679 187.021 222.804 187.372C222.93 187.723 222.911 188.109 222.752 188.446C222.593 188.783 222.307 189.043 221.956 189.168C221.605 189.294 221.219 189.275 220.882 189.116V189.116Z" fill="white"/>
<path d="M202.786 49.2794L201.526 49.4175C195.905 27.3331 185.01 12.0333 170.018 5.17175C150.96 -3.55046 127.394 2.30667 103.66 21.6644C79.806 41.121 58.6888 71.854 44.1991 108.203L42.9759 107.644C57.5292 71.1356 78.7548 40.2541 102.743 20.6893C126.851 1.02567 150.898 -4.8744 170.455 4.07618C185.877 11.1343 197.057 26.7654 202.786 49.2794Z" fill="#F2F2F2"/>
<path d="M63.7079 78.0414C60.4112 84.9853 57.2755 92.1792 54.3878 99.4231C37.7707 141.109 29.3499 183.681 30.038 222.54L28.7393 222.401C28.0504 183.398 36.4955 140.679 53.1647 98.8634C56.0606 91.5991 59.2053 84.3849 62.5114 77.4214L63.7079 78.0414Z" fill="#F2F2F2"/>
<path d="M63.0846 106.684C59.7879 113.628 56.6522 120.822 53.7645 128.066C37.1474 169.752 28.7265 212.324 29.4146 251.183L28.1159 251.044C27.4271 212.041 35.8722 169.322 52.5413 127.506C55.4373 120.242 58.5819 113.028 61.8881 106.064L63.0846 106.684Z" fill="#F2F2F2"/>
</g>
<defs>
<clipPath id="clip0_5_130">
<rect width="402" height="326" fill="white"/>
</clipPath>
</defs>
</svg>
