<svg width="191" height="101" viewBox="0 0 191 101" fill="none" xmlns="http://www.w3.org/2000/svg">
<g id="logo 1" clip-path="url(#clip0_1_2)">
<path id="center" d="M42.07 80.73C23.54 56.91 30.51 11.99 39.07 9.55C47.63 7.11 59.5 47.62 73.07 44.86C83.75 42.68 85.01 15.67 94.07 15.25C103.48 14.8 108.4 43.78 116.54 43.15C126.12 42.41 126.67 1.77002 134.54 1.01002C142.23 0.270025 159.64 37.44 149.54 63.65C135.19 100.57 67.29 113.16 42.07 80.73Z" fill="#FDCE0B" stroke="#262262" stroke-width="2" stroke-miterlimit="10"/>
<path id="right" d="M152.53 26.12C152.93 24.91 188.93 31.94 189.87 48.77C190.87 66.29 153.03 80.62 152.64 79.7C152.25 78.78 182.07 65.52 181.41 49.96C180.8 34.93 152.17 27.25 152.53 26.12Z" fill="#FDCE0B" stroke="#262262" stroke-width="2" stroke-miterlimit="10"/>
<path id="left" d="M49.55 94.19C49.84 95.62 13.25 103.41 3.36001 86.31C-6.93999 68.51 19.84 37.76 20.69 38.55C21.54 39.34 1.47001 65.63 10.44 81.55C19.09 96.87 49.29 92.9 49.55 94.19Z" fill="#FDCE0B" stroke="#262262" stroke-width="2" stroke-miterlimit="10"/>
</g>
<defs>
<clipPath id="clip0_1_2">
<rect width="190.89" height="100.36" fill="white"/>
</clipPath>
</defs>
</svg>
