<?xml version="1.0" encoding="utf-8"?>
<!-- Generator: Adobe Illustrator 25.4.1, SVG Export Plug-In . SVG Version: 6.00 Build 0)  -->
<svg version="1.1" id="Layer_1" xmlns="http://www.w3.org/2000/svg" xmlns:xlink="http://www.w3.org/1999/xlink" x="0px" y="0px"
	 viewBox="0 0 1315 1341" style="enable-background:new 0 0 1315 1341;" xml:space="preserve">
<style type="text/css">
	.st0{fill:#2C65A5;fill-opacity:0.15;}
	.st1{fill:#2C65A5;fill-opacity:0.2;}
	.st2{fill:#2C65A5;fill-opacity:0.25;}
</style>
<g id="Group_15">
	<path id="Vector3" class="st0" d="M1093.1,418.8c74,147.7,104.3,329.1,66.2,502.9c-37.8,173-144,338.5-273.5,395.4
		c-128.7,56.3-281.7,4.5-397.7-63.7c-116-68.2-196.1-153.2-277.3-266.6c-82-112.7-164.7-254.5-144.6-385.3
		c20.3-131.5,143.5-252,279.5-343.4c136.5-90.5,284.9-151.4,419.2-125.3C899.4,158.1,1018.2,271.6,1093.1,418.8z"/>
	<path id="Vector2" class="st1" d="M1025.4,509.1c60.5,120.6,85.2,268.8,54.1,410.7c-30.9,141.3-117.6,276.4-223.4,322.9
		c-105.1,46-230.1,3.7-324.8-52C436.6,1135,371.1,1065.6,304.8,973c-67-92.1-134.5-207.9-118.1-314.7
		C203.3,551,303.9,452.6,415,377.9C526.4,304,647.6,254.3,757.4,275.6C867.2,296.2,964.2,388.9,1025.4,509.1z"/>
	<path id="Vector1" class="st2" d="M913,595c45.8,91.3,64.5,203.4,40.9,310.8c-23.4,107-89,209.2-169.1,244.4
		c-79.6,34.8-174.1,2.8-245.8-39.3c-71.7-42.2-121.2-94.7-171.4-164.8C317,876.5,265.9,788.8,278.3,708
		c12.6-81.3,88.7-155.8,172.8-212.3c84.3-55.9,176.1-93.6,259.1-77.5C793.3,433.9,866.7,504.1,913,595z"/>
</g>
</svg>
