<?xml version="1.0" encoding="utf-8"?>
<!-- Generator: Adobe Illustrator 25.4.1, SVG Export Plug-In . SVG Version: 6.00 Build 0)  -->
<svg version="1.1" id="Layer_1" xmlns="http://www.w3.org/2000/svg" xmlns:xlink="http://www.w3.org/1999/xlink" x="0px" y="0px"
	 viewBox="0 0 1315 1341" style="enable-background:new 0 0 1315 1341;" xml:space="preserve">
<style type="text/css">
	.st0{fill:#2C65A5;fill-opacity:0.15;}
	.st1{fill:#2C65A5;fill-opacity:0.2;}
	.st2{fill:#2C65A5;fill-opacity:0.25;}
</style>
<g id="Group_15">
	<path id="Vector3" class="st0" d="M1232.6,379.2c68.5,136.6,96.4,304.3,61.2,465c-35,160-133.1,313-252.9,365.5
		c-119,52-260.5,4.2-367.7-58.9c-107.2-63.1-181.3-141.7-256.4-246.4c-75.8-104.2-152.3-235.3-133.7-356.2
		c18.8-121.6,132.7-233,258.4-317.5C667.8,147,805,90.7,929.2,114.8C1053.6,138.2,1163.4,243.1,1232.6,379.2z"/>
	<path id="Vector2" class="st1" d="M1170,462.7c55.9,111.5,78.7,248.5,50,379.7c-28.6,130.7-108.7,255.6-206.5,298.5
		c-97.2,42.5-212.7,3.4-300.3-48.1c-87.6-51.5-148.1-115.7-209.4-201.3c-61.9-85.1-124.4-192.2-109.2-290.9
		c15.3-99.3,108.4-190.3,211-259.3c103-68.3,215.1-114.3,316.5-94.6C1023.8,265.9,1113.5,351.6,1170,462.7z"/>
	<path id="Vector1" class="st2" d="M1066.2,542.1c42.3,84.4,59.6,188.1,37.8,287.4c-21.6,98.9-82.3,193.4-156.3,225.9
		c-73.6,32.2-161,2.6-227.3-36.4c-66.3-39-112.1-87.6-158.5-152.3c-46.9-64.4-94.1-145.5-82.6-220.2c11.6-75.2,82-144,159.7-196.3
		c78-51.7,162.8-86.5,239.6-71.6C955.5,393.2,1023.4,458,1066.2,542.1z"/>
</g>
</svg>
