<svg width="37" height="37" viewBox="0 0 37 37" fill="none" xmlns="http://www.w3.org/2000/svg">
<rect x="0.5" y="0.5" width="36" height="36" rx="4.5" fill="black" stroke="#0B9FBF"/>
<path d="M7.2642 26V11.4545H13.0028C14.1061 11.4545 15.0459 11.6652 15.8224 12.0866C16.599 12.5033 17.1908 13.0833 17.598 13.8267C18.0099 14.5653 18.2159 15.4176 18.2159 16.3835C18.2159 17.3494 18.0076 18.2017 17.5909 18.9403C17.1742 19.679 16.5705 20.2543 15.7798 20.6662C14.9938 21.0781 14.0421 21.2841 12.9247 21.2841H9.26705V18.8196H12.4276C13.0194 18.8196 13.5071 18.7178 13.8906 18.5142C14.2789 18.3059 14.5677 18.0194 14.7571 17.6548C14.9512 17.2855 15.0483 16.8617 15.0483 16.3835C15.0483 15.9006 14.9512 15.4792 14.7571 15.1193C14.5677 14.7547 14.2789 14.473 13.8906 14.2741C13.5024 14.0705 13.0099 13.9688 12.4134 13.9688H10.3395V26H7.2642ZM29.2333 18.2017L26.4634 18.3722C26.4161 18.1354 26.3143 17.9223 26.158 17.733C26.0018 17.5388 25.7958 17.3849 25.5401 17.2713C25.2892 17.1529 24.9885 17.0938 24.6381 17.0938C24.1694 17.0938 23.774 17.1932 23.4521 17.392C23.1301 17.5862 22.9691 17.8466 22.9691 18.1733C22.9691 18.4337 23.0733 18.6539 23.2816 18.8338C23.4899 19.0137 23.8474 19.1581 24.354 19.267L26.3285 19.6648C27.3891 19.8826 28.1798 20.233 28.7006 20.7159C29.2215 21.1989 29.4819 21.8333 29.4819 22.6193C29.4819 23.3343 29.2712 23.9616 28.8498 24.5014C28.4331 25.0412 27.8602 25.4626 27.131 25.7656C26.4066 26.0639 25.5709 26.2131 24.6239 26.2131C23.1798 26.2131 22.0292 25.9124 21.1722 25.3111C20.32 24.705 19.8204 23.8812 19.6737 22.8395L22.6495 22.6832C22.7395 23.1236 22.9573 23.4598 23.3029 23.6918C23.6486 23.919 24.0913 24.0327 24.631 24.0327C25.1613 24.0327 25.5875 23.9309 25.9094 23.7273C26.2362 23.5189 26.4019 23.2514 26.4066 22.9247C26.4019 22.6501 26.2859 22.4252 26.0586 22.25C25.8313 22.0701 25.4809 21.9328 25.0075 21.8381L23.1183 21.4616C22.0529 21.2486 21.2598 20.8793 20.739 20.3537C20.2229 19.8281 19.9648 19.1581 19.9648 18.3438C19.9648 17.643 20.1542 17.0393 20.533 16.5327C20.9165 16.026 21.454 15.6354 22.1452 15.3608C22.8413 15.0862 23.6557 14.9489 24.5884 14.9489C25.9663 14.9489 27.0505 15.2401 27.8413 15.8224C28.6367 16.4048 29.1007 17.1979 29.2333 18.2017Z" fill="#14C0E6"/>
</svg>
